<svg width="3273" height="775" viewBox="0 0 3273 775" fill="none" xmlns="http://www.w3.org/2000/svg">
<path fill-rule="evenodd" clip-rule="evenodd" d="M381.155 1.84104C300.214 10.3956 215.774 41.8413 158.294 84.8339C70.5614 150.456 13.2545 248.555 1.94603 352.475C-4.44852 411.24 5.12313 476.657 27.609 527.889C70.7268 626.125 156.25 705.238 262.523 745.199C290.851 755.851 308.414 761.065 328.708 764.854C338.138 766.614 349.485 768.797 353.923 769.702C373.215 773.64 407.843 775.797 434.611 774.727C592.316 768.427 733.712 682.637 800.803 552.542C821.806 511.818 833.55 472.36 839.186 423.589C843.737 384.201 837.336 327.029 823.577 284.205C785.946 167.07 698.835 74.8552 583.566 30.1293C522.547 6.45304 442.867 -4.68248 381.155 1.84104ZM488.067 26.3308C519.041 31.6938 545.229 38.3007 567.335 46.3262C698.553 93.9669 792.831 207.391 813.923 342.993C818.11 369.914 817.076 428.383 811.996 451.856C796.781 522.153 764.447 582.996 716.734 631.107C656.32 692.026 577.532 732.286 487.772 748.102C464.651 752.175 398.146 753.757 374.44 750.797C338.432 746.302 296.872 736.31 271.217 725.981C203.832 698.847 154.679 665.418 112.402 617.967C62.3675 561.81 33.122 498.488 24.5206 427.685C21.9204 406.284 23.3103 352.712 26.9634 333.511C32.2727 305.619 39.5791 281.628 50.6011 255.913C63.2712 226.353 67.2027 219.088 84.5305 193.189C116.16 145.912 159.161 105.379 206.108 78.5854C252.98 51.8332 315.997 31.3164 375.103 23.564C404.472 19.7106 457.321 21.0058 488.067 26.3308ZM416.456 144.259C394.291 146.041 360.446 151.918 334.759 158.442C261.708 177 200.651 206.714 158.986 243.989C127.019 272.586 112.61 294.012 104.515 324.977C99.8795 342.714 98.4069 370.147 101.205 386.61C109.651 436.274 148.373 479.947 209.692 508.967C230.556 518.844 270.067 531.312 293.406 535.39C296.735 535.97 309.443 538.253 321.647 540.464C339.818 543.754 353.154 544.593 395.275 545.097C423.567 545.435 452.615 544.964 459.826 544.048C467.038 543.134 476.569 542.014 481.007 541.558C501.493 539.459 554.367 527.485 580.859 518.946C612.88 508.624 656.032 489.979 679.702 476.24C696.87 466.274 730.781 442.403 737.906 435.267L742.653 430.512L724.147 418.99C713.968 412.654 704.568 407.47 703.257 407.47C701.945 407.47 693.159 411.742 683.732 416.963C663.205 428.332 644.417 435.889 620.081 442.564C546.37 462.779 475.756 463.342 418.972 444.168C363.775 425.529 320.294 389.247 300.606 345.398C290.368 322.596 285.703 300.802 286.901 281.387C288.618 253.587 296.212 236.614 314.168 220.44C354.972 183.684 440.735 188.59 463.737 228.994C469.67 239.415 467.441 255.263 458.664 265.067L453.573 270.756L463.255 277.39C468.581 281.038 474.798 284.97 477.069 286.126C480.603 287.926 492.126 283.179 556.749 253.31C598.301 234.105 645.686 212.268 662.051 204.783C678.417 197.3 691.805 190.422 691.805 189.5C691.805 187.409 665.644 164.734 663.229 164.734C662.257 164.734 653.208 167.766 643.12 171.472L624.781 178.208L609.376 170.736C560.59 147.073 494.401 137.987 416.456 144.259ZM1293.94 169.539C1259.07 175.594 1218.26 192.182 1183.2 214.553C1148.91 236.436 1106.44 279.933 1080.94 319.288C1065.28 343.444 1040.26 402.073 1036.02 424.537C1035.53 427.145 1033.06 439.092 1030.54 451.086C1024.35 480.49 1023.7 540.094 1029.29 564.869C1046.06 639.081 1083.39 688.324 1138.65 709.128C1166.81 719.727 1187.1 722.357 1224.32 720.235C1285.68 716.734 1326.83 693.363 1367.91 638.683C1374.93 629.33 1384.13 615.572 1388.35 608.106C1392.57 600.642 1396.47 593.849 1397.02 593.009C1397.57 592.171 1401.38 593.553 1405.49 596.081C1423.75 607.321 1447.98 607.213 1472.46 595.783C1484.33 590.246 1491.96 584.612 1507.81 569.684C1518.93 559.214 1531.11 546.593 1534.88 541.642C1538.65 536.689 1542.1 532.981 1542.54 533.404C1542.99 533.825 1542.35 537.451 1541.12 541.46C1534.61 562.639 1536.26 582.624 1545.3 592.311C1559.79 607.822 1592.3 608.478 1623.27 593.883C1651.35 580.65 1668.19 561.994 1726.48 479.532C1744.55 453.978 1760.26 432.217 1761.4 431.174C1764.71 428.152 1761.81 439.754 1751.69 470.05C1728.93 538.166 1718.1 570.448 1714.44 581.121C1712.27 587.453 1710.5 593.64 1710.5 594.869C1710.5 596.521 1722.27 597.107 1755.49 597.107H1800.49L1813.16 557.757C1820.12 536.114 1829.32 511.351 1833.6 502.728C1847.75 474.237 1882.89 427.662 1910.73 400.521C1926.17 385.472 1934.52 380.871 1939.45 384.715C1945.8 389.667 1946.33 387.861 1893.2 542.112C1883.68 569.752 1875.9 593.434 1875.9 594.737C1875.9 596.563 1886.3 597.107 1921.13 597.107H1966.36L1967.69 591.422C1970.87 577.815 1997.76 504.115 2003.28 493.887C2010.89 479.794 2040.5 437.093 2054.01 420.744C2074.83 395.549 2091.85 381.52 2098.64 383.966C2108.24 387.429 2107.47 391.244 2082.72 463.413C2056.09 541.081 2056.03 541.28 2055.61 557.499C2055.13 576.344 2059.64 587.062 2071.04 594.154C2082.55 601.313 2098.67 604.065 2112.32 601.194C2153.24 592.584 2181.8 563.807 2241.07 471.463C2250.28 457.117 2258.18 445.729 2258.64 446.158C2259.54 447.005 2254.29 463.672 2234.38 523.148C2227.23 544.53 2213.47 586.345 2203.82 616.071C2194.16 645.796 2183.91 675.078 2181.03 681.141C2172.64 698.83 2156.38 708.993 2136.46 708.993C2131.64 708.993 2130.26 709.979 2129.19 714.208C2128.46 717.077 2127.39 720.917 2126.82 722.742C2125.83 725.869 2131.12 726.06 2218.36 726.06H2310.95L2313.09 719.491C2315.84 711.081 2314.12 709.788 2298.51 708.498C2291.85 707.948 2284.04 706.473 2281.14 705.217C2273.03 701.703 2265.88 684.357 2270.68 679.844C2271.46 679.108 2272.38 676.62 2272.71 674.312C2273.37 669.793 2296.79 599.037 2298.01 597.888C2298.42 597.509 2303.24 598.787 2308.72 600.733C2329.28 608.024 2370.45 605.453 2400.38 595.006C2434.05 583.256 2456.88 566.492 2508.1 515.927C2518.99 505.176 2528.3 496.751 2528.78 497.206C2529.27 497.661 2528.59 502.038 2527.28 506.933C2523.92 519.477 2526.02 544.31 2531.62 558.218C2537.3 572.34 2553.89 588.579 2569.88 595.67C2607.7 612.437 2666.08 608.853 2712.55 586.912C2750.12 569.172 2789.16 533.99 2844.97 467.573C2852.62 458.465 2859.17 451.287 2859.53 451.623C2859.89 451.959 2852.43 474.362 2842.96 501.412C2822.43 560.023 2821.56 565.804 2830.69 582.378C2836.37 592.709 2838.64 594.875 2848.87 599.796C2883.53 616.461 2925.76 600.606 2964.63 556.335C2971.95 548 2973.11 547.312 2974.22 550.646C2977.31 559.965 2986.08 574.25 2992.01 579.619C3002.64 589.252 3021.17 598.59 3035.88 601.736C3044.07 603.486 3059.01 604.681 3072.51 604.664C3115.27 604.611 3148.45 593.375 3187.66 565.667C3224.25 539.806 3253.02 500.043 3267.13 455.827C3273.99 434.324 3275 400.043 3269.29 382.582C3261.89 359.967 3243.15 341.925 3217.11 332.351C3202.96 327.145 3200.72 326.881 3171.96 327.014C3144.46 327.143 3140.24 327.629 3125.65 332.351C3066.91 351.35 3023.43 386.01 2992.64 438.379C2980.02 459.851 2969.23 494.104 2969.23 512.726C2969.23 519.923 2967.63 523.021 2957.09 536.171C2938.69 559.123 2928.37 565.893 2918.99 561.171C2911.28 557.291 2910.21 561.192 2957.14 422.641C2984.81 340.968 2997.56 301.184 3004.57 274.724C3007.47 263.772 3013.91 241.306 3018.87 224.8C3023.84 208.292 3027.41 193.327 3026.81 191.545C3026.21 189.762 3023.67 188.226 3021.18 188.135C3013.5 187.849 2900.44 206.23 2898.28 208.115C2897.54 208.766 2896.32 212.392 2895.58 216.169L2894.24 223.042L2906.83 223.897C2917.42 224.618 2920.16 225.57 2924.15 229.931C2926.76 232.781 2928.89 236.984 2928.88 239.273C2928.88 243.175 2904.07 323.576 2897.76 340.148C2896.17 344.32 2890.24 361.581 2884.58 378.504L2874.28 409.275L2857.21 429.707C2806.13 490.849 2779.73 517.408 2751.33 536.237C2722.18 555.567 2700.97 562.978 2674.87 562.961C2653.54 562.95 2644.4 560.676 2635.23 553.105C2621.51 541.786 2616.03 523.327 2620.21 502.516L2622.83 489.482L2641.21 487.079C2651.32 485.758 2661.41 484.462 2663.63 484.203C2689.85 481.119 2728.99 468.878 2749.76 457.267C2770.09 445.903 2795.44 423.902 2804.68 409.609C2813.04 396.66 2817.94 380.448 2817.94 365.723C2817.94 351.278 2810.58 340.342 2795.61 332.563C2784.69 326.893 2784.55 326.874 2752.38 326.967C2714.87 327.077 2701.52 329.807 2669.28 343.973C2615.48 367.606 2573.45 404.911 2547.5 452.048C2540.27 465.186 2521.59 489.816 2520 488.32C2519.59 487.929 2521.15 483.069 2523.48 477.52C2530.59 460.559 2535.24 438.606 2536.65 415.383C2539.48 368.621 2526.9 342.202 2495.76 329.491C2487.51 326.127 2483.18 325.677 2465.94 326.392C2449 327.098 2443.28 328.211 2430.25 333.346C2416.18 338.891 2398.38 349.59 2380.67 363.146C2377.04 365.922 2373.64 367.794 2373.12 367.304C2372.6 366.813 2374.87 358.369 2378.17 348.54C2381.47 338.709 2384.19 329.487 2384.21 328.048C2384.24 325.918 2380.55 325.639 2364.57 326.553C2353.76 327.173 2341.28 328.125 2336.84 328.672C2242.33 340.298 2247.33 339.09 2244.29 351.053C2242.98 356.177 2243.13 356.269 2252.58 356.374C2266.74 356.533 2275.87 360.034 2278.17 366.191C2281.52 375.188 2274.69 396.897 2263.65 412.288C2258.42 419.589 2248.23 434.355 2241.02 445.101C2191.83 518.396 2163.12 553.49 2152.36 553.49C2147.09 553.49 2143.63 548.712 2145.22 543.625C2145.96 541.228 2156.54 510.253 2168.73 474.791C2198.17 389.143 2196.63 393.871 2198.16 384.461C2201.64 363.11 2197.82 348.075 2185.96 336.481C2164.53 315.535 2128.57 321.188 2092.29 351.204C2070.23 369.453 2037.64 407.86 2024.05 431.612C2020.93 437.068 2018.05 441.219 2017.64 440.84C2017.24 440.461 2020.72 428.743 2025.37 414.801C2032.56 393.254 2033.85 386.896 2033.98 372.387C2034.18 350.559 2029.23 339.634 2015.42 331.4C2007.36 326.593 2004.37 325.931 1991 325.971C1973.79 326.022 1960.08 330.363 1943.74 340.934C1921.53 355.295 1880.71 398.75 1862.02 427.924C1857.15 435.515 1852.75 441.326 1852.23 440.836C1851.71 440.347 1855.35 428.159 1860.33 413.752C1871.13 382.483 1888.09 329.455 1888.04 327.086C1888 324.714 1853.6 326.931 1822.45 331.313C1808.03 333.342 1785.94 336.069 1773.37 337.372C1748.93 339.906 1750.15 339.268 1746.02 351.733C1744.79 355.435 1745.62 355.812 1757.15 356.795C1785.43 359.205 1788.78 375.218 1766.27 400.33C1752.71 415.455 1743.56 427.232 1722.21 457.009C1687.39 505.588 1660.57 539.533 1649.71 548.755C1634.8 561.419 1624.46 559.341 1626.41 544.071C1627.02 539.343 1635.89 511.154 1646.12 481.428C1681.53 378.565 1696.34 334.448 1696.36 331.82C1696.37 329.608 1689.94 329.405 1656.56 330.564C1634.67 331.323 1616.11 332.32 1615.32 332.777C1614.53 333.234 1611.38 340.841 1608.32 349.68C1602.83 365.509 1599.59 369.851 1599.5 361.483C1599.45 356.277 1592.52 341.525 1587.84 336.663C1580.55 329.081 1568.99 325.288 1553.15 325.277C1492.9 325.23 1419.71 389.583 1390.01 468.726C1380.45 494.202 1377.66 508.137 1377.66 530.324C1377.66 545.524 1378.7 553.638 1381.85 563.027L1386.04 575.515L1374.37 593.936C1358.06 619.676 1345.49 633.569 1326.57 646.754C1300.01 665.266 1277.56 674.03 1251.31 676.125C1226.51 678.105 1197.3 668.498 1179.31 652.449C1167.05 641.509 1148.16 608.944 1144.96 593.231C1144.44 590.669 1142.99 584.733 1141.75 580.04C1135.63 556.946 1137.42 489.002 1144.94 458.672C1146.62 451.892 1148.37 444.673 1148.82 442.63C1149.27 440.586 1152.89 427.916 1156.87 414.471C1179.65 337.395 1212.06 277.176 1250.54 240.424C1268.08 223.664 1275.4 218.585 1297.52 207.829C1309.64 201.933 1310.93 201.719 1334.29 201.745C1358.47 201.772 1358.51 201.78 1371.91 208.844C1402.75 225.092 1420.27 255.354 1425.97 302.221C1427.12 311.608 1428.06 319.975 1428.07 320.815C1428.08 321.653 1432.33 322.08 1437.52 321.763L1446.96 321.185L1452.35 297.48C1455.32 284.442 1461.55 258.841 1466.2 240.589C1470.84 222.336 1475.13 204.546 1475.73 201.053C1476.32 197.562 1478.09 190.735 1479.66 185.882C1481.23 181.031 1482.52 175.141 1482.53 172.793C1482.55 168.849 1481.65 168.527 1470.68 168.527C1460.39 168.527 1458.39 169.132 1455.66 173.051C1451.3 179.296 1436.59 185.594 1426.37 185.594C1421.54 185.594 1405.88 181.777 1390.25 176.791C1363.86 168.377 1361.49 167.961 1336.36 167.364C1319.07 166.953 1304.56 167.696 1293.94 169.539ZM672.642 214.845C658.218 221.435 630.532 234.075 611.117 242.935C517.647 285.586 491.831 297.84 491.016 299.941C490.53 301.195 490.802 312.035 491.621 324.029C493.013 344.423 493.372 345.794 497.142 345.172C500.761 344.575 685.588 259.755 697.857 253.061C700.63 251.548 702.809 249.403 702.698 248.294C702.587 247.184 702.361 236.464 702.194 224.47C702.026 212.475 701.211 202.707 700.378 202.764C699.545 202.819 687.065 208.256 672.642 214.845ZM363.549 212.839C326.856 221.657 306.722 242.053 302.351 274.834C300.321 290.037 300.62 294.156 304.88 309.803L306.944 317.384L311.686 305.523C320.14 284.384 332.036 271.314 353.136 259.987C364.366 253.956 386.434 248.174 398.214 248.174C407.701 248.174 429.975 254.973 436.642 259.901L442.256 264.055L447.126 258.485C451.158 253.873 451.85 251.343 451.148 243.767C450.02 231.549 444.961 225.698 429.043 218.208C417.17 212.619 413.501 211.859 394.916 211.125C381.379 210.592 370.405 211.191 363.549 212.839ZM443.688 299.911C443.688 318.89 443.868 319.681 449.236 324.295C457.694 331.565 476.03 343.562 477.12 342.538C477.652 342.037 477.475 332.136 476.724 320.536C475.526 301.982 474.85 299.128 471.124 296.837C468.793 295.405 461.668 291.099 455.287 287.264L443.688 280.297V299.911ZM3173.7 347.501C3199.49 357.633 3191.64 426.585 3155.75 505.068C3137.09 545.886 3117.85 572.536 3101.76 579.858C3091.54 584.506 3074.87 585.488 3068.61 581.809C3060.13 576.829 3055.97 566.498 3055.97 550.388C3055.98 512.485 3072.42 456.698 3098.5 406.089C3112.56 378.812 3115.91 373.839 3128.03 362.345C3145.5 345.779 3158.53 341.542 3173.7 347.501ZM1574.74 354.841C1581.7 361.38 1583.47 370.028 1582.59 393.188C1581.63 418.484 1575.66 439.228 1561.25 467.327C1543.57 501.799 1514.81 538.086 1499.91 544.735C1483.79 551.924 1471.93 546.049 1469.3 529.579C1464.46 499.233 1488.45 429.136 1519.85 381.869C1539.65 352.061 1560.74 341.677 1574.74 354.841ZM2730 350.84C2740.22 355.219 2741.68 368.768 2734.18 389.761C2720 429.466 2680.73 460.76 2636.78 467.367L2628.11 468.671L2629.57 463.202C2633.63 447.991 2650.22 415.44 2664.13 395.38C2675.17 379.458 2697.09 358.206 2708 352.826C2717.24 348.274 2722.83 347.77 2730 350.84ZM2432.4 379.593C2449.46 394.311 2449.72 425.775 2433.21 477.601C2421.49 514.402 2399.13 551.511 2377.72 569.682C2353.74 590.039 2329.27 593.036 2316.05 577.233C2308.76 568.521 2308.68 561.702 2315.61 541.033C2325.86 510.479 2358.25 416.438 2360.42 410.921C2362.91 404.604 2384.85 384.58 2394.32 379.974C2410.11 372.3 2423.79 372.163 2432.4 379.593ZM99.8149 439.719C103.906 492.632 112.701 513.12 144.133 542.952C227.343 621.927 385.94 641.596 555.643 593.986C623.744 574.882 683.843 544.625 728.115 507.158L747.278 490.939L748.531 468.643C749.221 456.379 749.509 446.048 749.172 445.685C748.838 445.321 742.372 449.725 734.808 455.469C682.925 494.868 618.804 524.241 541.644 543.952C487.851 557.693 445.476 562.235 388.683 560.34C341.902 558.779 317.726 555.667 277.583 546.04C231.599 535.01 189.238 517.556 162.078 498.448C138.202 481.65 110.391 450.368 104.442 433.611C100.107 421.408 98.5582 423.456 99.8149 439.719Z" fill="#16350B"></path>
</svg>