<svg width="2124" height="775" viewBox="0 0 2124 775" fill="none" xmlns="http://www.w3.org/2000/svg">
<path fill-rule="evenodd" clip-rule="evenodd" d="M928.361 0.500474L62.1417 1.0128L55.0167 3.14114C31.465 10.1746 16.8722 20.2189 7.47799 35.8587C-0.733437 49.5333 -0.200479 23.4249 0.177087 392.988C0.499431 707.275 0.666381 729.788 2.71346 734.271C11.612 753.752 31.6885 768.58 55.7872 773.471C62.5167 774.836 170.341 775 1063.52 775H2063.72L2073.97 772.361C2097.67 766.256 2115.74 751.218 2122.05 732.342C2123.76 727.235 2123.99 686.736 2123.99 390.258C2123.99 20.0107 2124.64 49.3342 2116.16 35.7537C2107.24 21.4727 2089.08 8.22334 2070.35 2.32862L2062.99 0.0121677L1928.78 0.000159111C1854.97 -0.0068453 1404.78 0.218296 928.361 0.500474ZM2059.86 22.1141C2076.8 25.9735 2089.43 35.9598 2095.7 50.4549L2098.32 56.5277L2097.99 391.999L2097.66 727.47L2093.51 734.081C2088.59 741.92 2080.52 748.079 2070.28 751.822L2062.99 754.487H1062.56H62.1417L53.595 751.229C43.0078 747.194 33.3374 739.274 29.1637 731.219L26.1829 725.469V389.758V54.0462L28.9954 48.3096C35.7082 34.62 48.0869 25.7604 65.6476 22.0761C71.4627 20.8563 211.863 20.6472 1062.65 20.5911C1963.69 20.5311 2053.52 20.6682 2059.86 22.1141ZM100.669 49.9296C85.4403 52.8154 74.6887 59.8128 67.4404 71.5572L63.4259 78.0613V389.257V700.453L66.9139 705.605C71.1057 711.798 77.8569 716.354 86.5422 718.849C92.7567 720.635 124.211 720.707 1063.85 721.08L2034.73 721.466L2041.35 718.749C2049.65 715.338 2055.49 709.91 2057.81 703.455C2059.32 699.253 2059.83 649.228 2060.96 391.179C2062.18 116.18 2062.11 83.2846 2060.35 77.9822C2055.44 63.1859 2041.63 52.7784 2022.79 49.6664C2017.89 48.8569 1944.94 48.5427 1761.75 48.5427H1507.52L1510.42 52.0199C1512.02 53.9321 1530.44 74.9824 1551.35 98.7994C1572.26 122.615 1599.67 154.034 1612.27 168.618C1642.94 204.135 1697.74 266.961 1699.01 268.07C1699.57 268.558 1720.39 245.031 1745.27 215.787L1790.52 162.615H1876.13C1923.22 162.615 1962.08 162.877 1962.5 163.198C1963.69 164.125 1940.24 191.836 1819.1 332.646C1803.46 350.827 1791.42 365.783 1791.72 366.667C1792.02 367.535 1801.47 378.6 1812.74 391.258C1824.01 403.916 1846.67 429.583 1863.09 448.294C1889.86 478.785 1923.69 517.054 1962.16 560.365C1997.56 600.214 2022.81 630.023 2021.83 630.789C2021.55 631.012 2020.53 630.691 2019.58 630.076C2014.16 626.57 2003.74 626.074 1921.08 625.393C1876.24 625.023 1839.16 624.537 1838.7 624.314C1836.27 623.145 1747.85 525.655 1715.07 488.001C1705.33 476.819 1697.07 467.905 1696.7 468.19C1694.94 469.561 1659.78 510.15 1631.84 543.06L1600.66 579.789L1435.11 579.583L1269.57 579.377L1262.91 566.254C1259.25 559.035 1251.13 542.713 1244.85 529.981L1233.45 506.831H1132.45H1031.45L1018.24 532.097C1010.98 545.994 1002.42 562.429 999.217 568.62L993.393 579.877H914.002C870.338 579.877 834.612 579.676 834.612 579.431C834.612 578.949 848.122 554.117 891.802 474.311C907.165 446.243 927.384 409.095 936.735 391.759C946.085 374.423 961.392 346.28 970.749 329.219C1013.09 252.031 1021.19 237.121 1055.1 174.122L1062.64 160.113L1133.96 159.855L1205.29 159.596L1208.66 165.859C1212.38 172.774 1219.99 186.158 1262.59 260.676C1278.47 288.469 1300.27 326.968 1311.02 346.23C1321.78 365.492 1337.52 393.41 1346.02 408.269C1378.54 465.143 1424.2 546.933 1434.42 566.619C1436.78 571.16 1439.03 574.873 1439.42 574.872C1439.81 574.871 1441.84 572.733 1443.93 570.119C1463.22 545.979 1488.02 515.975 1546.7 445.793C1585 399.972 1610.67 368.079 1610.1 367.019C1609.85 366.559 1592.55 347.509 1571.66 324.686C1550.77 301.863 1522.18 270.582 1508.13 255.173C1494.08 239.763 1475.66 219.725 1467.2 210.645C1451.9 194.224 1443.52 184.64 1366.35 95.3021L1325.97 48.5427L716.529 48.6278C242.776 48.6938 105.661 48.984 100.669 49.9296ZM391.191 185.379C401.078 197.899 413.969 214.222 419.841 221.652C425.711 229.081 445.217 253.847 463.189 276.686C481.161 299.526 496.57 318.798 497.433 319.512C498.691 320.555 501.673 317.69 512.527 305.003C541.378 271.282 573.616 230.284 607.363 184.397L623.354 162.653L703.298 162.634L783.242 162.615V371.254V579.893L707.151 579.635L631.06 579.377L630.935 517.838C630.866 483.992 630.722 432.944 630.614 404.399L630.418 352.498L609.549 374.92C598.072 387.252 581.877 404.979 573.562 414.313C510.786 484.783 498.644 498.202 497.612 498.26C496.969 498.296 484.942 485.493 470.886 469.808C421.453 414.644 363.923 352.862 361.9 352.769C360.816 352.719 359.443 444.712 359.443 517.502V579.877H283.46H207.478L208.332 429.617C208.802 346.974 209.187 253.089 209.187 220.985V162.615H291.201H373.215L391.191 185.379ZM1126.84 315.461C1092.6 379.595 1078.44 406.965 1079.21 407.565C1080.03 408.201 1185.37 407.98 1186.19 407.34C1186.87 406.808 1170.47 376.476 1151.76 343.67C1143.3 328.828 1135.45 314.89 1134.33 312.696C1133.2 310.502 1131.86 308.706 1131.36 308.706C1130.86 308.706 1128.82 311.746 1126.84 315.461ZM506.102 639.65C511.74 642.012 518.551 646.594 517.275 647.166C516.964 647.306 513.765 649.594 510.168 652.251L503.627 657.083L500.055 654.502C495.994 651.57 487.935 650.948 485.358 653.368C482.278 656.259 484.37 659.287 491.72 662.579C501.576 666.994 508.402 670.987 511.284 674.023C514.486 677.398 515.459 683.427 513.647 688.67C507.894 705.32 474.024 709.636 457.504 695.822L453.469 692.448L460.325 687.65L467.183 682.853L472.581 685.899C481.585 690.981 492.601 689.75 491.498 683.787C491.196 682.159 488.473 680.378 481.848 677.478C476.773 675.254 470.859 672.121 468.708 670.514C457.463 662.114 459.122 647.616 472.133 640.59C481.736 635.404 495.087 635.035 506.102 639.65ZM1273.67 637.469C1280.82 639.125 1288.39 643.756 1292.15 648.774L1294.43 651.815L1286.72 655.895C1277.32 660.871 1275.11 661.6 1275.11 659.721C1275.11 657.561 1268.53 653.213 1264.19 652.506C1257.88 651.478 1249.5 655.429 1245.73 661.206C1242.35 666.391 1240.92 673.805 1242.23 679.272C1244.53 688.807 1259.12 691.119 1269.68 683.622L1272.59 681.552L1279.71 687L1286.82 692.448L1282.06 695.681C1274.57 700.772 1266.82 703.221 1256.62 703.725C1245.56 704.273 1238.74 702.958 1231.53 698.886C1217.66 691.059 1214.73 670.812 1225.13 654.752C1234.77 639.878 1254.19 632.964 1273.67 637.469ZM1581.64 639.007C1588.78 641.7 1595.52 647.886 1598.22 654.235C1599.87 658.103 1600.2 661.32 1599.63 668.138C1597.82 689.979 1580.22 703.994 1554.7 703.933C1534.32 703.885 1522.03 694.666 1520.71 678.439C1519.06 658.055 1533.78 640.483 1555.51 636.896C1563.22 635.625 1575.25 636.597 1581.64 639.007ZM1675.14 638.346C1679.29 639.7 1688.63 645.571 1688.63 646.832C1688.63 648.348 1674.03 657.317 1673.52 656.116C1672.02 652.611 1659.51 650.618 1656.54 653.41C1653.17 656.573 1656.11 659.511 1668.18 665.032C1674.61 667.972 1681.07 671.685 1682.53 673.285C1685.8 676.863 1686.88 684.478 1684.82 689.355C1678.33 704.677 1648.61 709.073 1630.99 697.319C1628.08 695.38 1625.76 693.266 1625.83 692.62C1625.91 691.975 1628.83 689.442 1632.34 686.992C1637.74 683.218 1639.05 682.722 1640.88 683.754C1650.56 689.211 1658.29 690.608 1661.6 687.5C1664.95 684.36 1662.59 681.651 1652.45 676.976C1636.33 669.544 1633 666.115 1632.99 656.922C1632.98 650.93 1634.47 647.951 1639.67 643.578C1648.12 636.462 1662.73 634.306 1675.14 638.346ZM575.195 639.725C575.195 641.272 574.046 649.715 572.642 658.487C568.456 684.639 569.117 688.145 578.239 688.145C584.088 688.145 587.611 685.884 589.33 681.028C590.028 679.054 591.781 669.784 593.226 660.428C594.67 651.072 596.181 641.954 596.583 640.165L597.314 636.913H608.005H618.698L618.116 640.165C617.795 641.954 616.098 652.704 614.345 664.054C610.946 686.07 609.622 689.818 603.252 695.472C597.004 701.015 590.305 703.236 578.406 703.705C569.089 704.073 567.478 703.847 561.116 701.282C551.725 697.493 548.226 692.46 548.226 682.737C548.226 676.457 552.847 641.128 554.057 638.164C554.409 637.3 557.758 636.913 564.882 636.913H575.195V639.725ZM694.151 638.396C704.886 640.88 709.216 646.025 709.325 656.425C709.491 672.316 697.587 681.909 677.671 681.931L669.062 681.941L668.335 685.193C667.936 686.983 667.187 691.598 666.672 695.45L665.734 702.454L655.139 702.745C649.311 702.905 644.529 702.679 644.511 702.244C644.492 701.81 646.638 686.932 649.278 669.183L654.079 636.913H670.911C682.042 636.913 689.913 637.415 694.151 638.396ZM796.714 642.667C795.261 652.618 796.515 651.923 780.021 651.923C771.987 651.923 765.146 652.261 764.817 652.675C764.49 653.088 764.033 655.453 763.801 657.928L763.381 662.429L775.972 662.716L788.563 663.003L787.898 665.718C787.532 667.211 786.872 670.302 786.43 672.588C785.696 676.386 785.237 676.799 781.081 677.407C778.581 677.773 772.988 677.957 768.652 677.817L760.768 677.563L760.094 682.726L759.42 687.889L775.505 688.167L791.59 688.446L791.366 690.947C791.244 692.323 790.776 695.588 790.325 698.202L789.505 702.955H762.616C737.355 702.955 735.725 702.843 735.725 701.112C735.725 700.099 736.297 695.709 736.997 691.356C737.695 687.004 739.745 673.536 741.551 661.429C743.355 649.321 745.077 638.852 745.375 638.164C745.786 637.218 752.228 636.913 771.737 636.913H797.554L796.714 642.667ZM878.018 639.877C886.435 643.631 889.201 647.867 889.151 656.926C889.103 665.892 885.694 672.325 878.565 676.904L873.947 679.87L878.806 688.16C881.48 692.72 884.493 697.93 885.502 699.74L887.339 703.028L875.005 702.742L862.67 702.454L857.469 692.698C853.508 685.269 851.694 682.942 849.861 682.942C848.537 682.942 847.404 683.054 847.344 683.192C847.283 683.33 846.562 687.72 845.739 692.948L844.244 702.454L833.649 702.745C823.33 703.028 823.054 702.976 823.054 700.725C823.054 699.454 824.734 687.841 826.786 674.918C828.839 661.996 830.927 648.495 831.427 644.918C831.927 641.341 832.624 638.037 832.977 637.576C833.33 637.115 842.366 636.89 853.057 637.075C870.93 637.386 872.941 637.612 878.018 639.877ZM955.969 652.673C959.4 661.341 962.462 668.812 962.771 669.276C963.411 670.234 965.45 667.584 977.852 649.671L986.686 636.913H997.501H1008.32L1007.46 643.167C1006.76 648.337 1003.57 670.111 999.477 697.701L998.699 702.955H987.906C977.39 702.955 977.129 702.897 977.72 700.703C978.054 699.465 978.944 693.724 979.698 687.945C980.451 682.167 981.372 675.637 981.743 673.436C982.332 669.946 981.412 670.874 974.562 680.691L966.706 691.948H959.859H953.012L950.423 685.193C948.999 681.479 947.116 676.523 946.239 674.181C945.362 671.838 944.5 670.037 944.324 670.178C944.148 670.319 943.075 676.513 941.941 683.943C938.724 705.002 940.216 702.955 928.085 702.955H917.738L918.502 698.615C918.922 696.228 921.036 682.382 923.201 667.846C925.367 653.309 927.424 640.402 927.774 639.164C928.372 637.05 929.06 636.913 939.069 636.913H949.727L955.969 652.673ZM1095.97 643.667C1095.47 647.382 1094.79 650.759 1094.46 651.172C1094.14 651.585 1087.34 651.923 1079.34 651.923H1064.81L1064.01 655.049C1061.96 663.017 1061.84 662.929 1075.31 662.929H1087.42L1086.7 668.683C1085.54 677.865 1085.43 677.939 1072.18 677.939C1059.53 677.939 1060.5 677.411 1058.97 685.164L1058.44 687.887L1074.63 688.166L1090.82 688.446L1090.46 691.948C1090.26 693.874 1089.78 697.139 1089.38 699.202L1088.67 702.955H1061.64H1034.62L1035.43 698.202C1037.18 687.882 1042.77 651.081 1043.44 645.418C1043.84 642.116 1044.38 638.852 1044.65 638.164C1045.03 637.217 1051.44 636.913 1071.02 636.913H1096.9L1095.97 643.667ZM1172.72 637.974C1179.15 639.365 1185.97 644.161 1187.86 648.611C1190 653.679 1188.75 664.53 1185.44 669.587C1183.94 671.873 1180.65 675.07 1178.12 676.693L1173.53 679.644L1180.01 690.649C1183.58 696.703 1186.49 701.947 1186.49 702.304C1186.49 702.662 1181.15 702.944 1174.61 702.931L1162.74 702.908L1157.1 692.424C1154 686.658 1151.12 681.948 1150.68 681.956C1147.87 682.011 1146.59 684.659 1145.23 693.238L1143.7 702.955H1132.85H1122L1122.76 699.703C1123.17 697.914 1124.12 692.173 1124.85 686.945C1126.61 674.489 1131.13 645.44 1132.05 640.665L1132.78 636.913L1150.33 636.919C1159.98 636.922 1170.06 637.396 1172.72 637.974ZM1377.41 668.433C1381.84 685.494 1385.48 700.241 1385.51 701.204C1385.55 702.734 1384.2 702.955 1374.8 702.955H1364.04L1363.24 699.828C1362.8 698.108 1362.43 695.631 1362.43 694.324C1362.43 691.998 1362.19 691.948 1350.81 691.948H1339.18L1336.05 697.451L1332.93 702.955H1322.05H1311.16L1315.47 695.2C1331 667.269 1347.13 638.589 1347.77 637.784C1348.18 637.262 1353.21 636.965 1358.93 637.124L1369.35 637.413L1377.41 668.433ZM1467.24 638.391C1481.86 641.774 1490.04 651.493 1489.98 665.431C1489.93 679.605 1483.48 690.925 1471.92 697.118C1462.87 701.971 1456.73 702.955 1435.51 702.955H1416.53L1417.12 699.703C1417.44 697.914 1419.43 684.068 1421.54 668.933C1423.65 653.799 1425.67 640.402 1426.03 639.164C1426.68 636.968 1427.12 636.913 1443.78 636.913C1455.1 636.913 1463.01 637.411 1467.24 638.391ZM672.338 658.073C670.95 668.427 671.025 668.714 675.045 668.234C683.588 667.212 684.557 666.8 686.367 663.427C687.38 661.538 688.208 659.077 688.208 657.958C688.208 654.636 683.673 651.923 678.117 651.923H673.164L672.338 658.073ZM852.157 652.673C851.835 653.086 851.148 656.981 850.629 661.327L849.685 669.232L855.117 668.664C862.802 667.862 866.718 664.704 866.718 659.309C866.718 656.03 866.055 654.676 863.863 653.481C860.922 651.875 853.196 651.342 852.157 652.673ZM1151.36 654.674C1150.99 656.188 1150.33 660.015 1149.88 663.18C1149.09 668.775 1149.15 668.933 1152.18 668.933C1157.8 668.933 1163.41 666.776 1165.34 663.871C1169.68 657.33 1165.93 651.923 1157.06 651.923C1152.58 651.923 1151.95 652.229 1151.36 654.674ZM1445.34 655.175C1444.96 656.964 1444.05 662.704 1443.31 667.933C1442.57 673.161 1441.6 679.864 1441.17 682.829L1440.38 688.218L1447.68 687.747C1457.15 687.135 1463.03 683.06 1466.02 675.027C1468.27 668.998 1467.78 660.549 1464.97 657.048C1462.72 654.231 1456.24 651.923 1450.59 651.923C1446.44 651.923 1445.96 652.216 1445.34 655.175ZM1556.86 652.85C1552.57 654.281 1546.44 660.775 1544.91 665.495C1542.86 671.841 1543.21 678.957 1545.76 682.942C1550.26 689.958 1563.03 690.172 1570.24 683.351C1575.04 678.821 1576.9 673.837 1576.9 665.581C1576.9 659.771 1576.47 658.581 1573.37 655.879C1569.55 652.55 1561.94 651.154 1556.86 652.85ZM1351.13 667.058C1348.87 671.722 1347.02 675.992 1347.02 676.547C1347.02 677.102 1349.67 677.53 1352.9 677.498L1358.77 677.439L1357.89 670.594C1356.25 657.779 1355.75 657.521 1351.13 667.058Z" fill="#16350B"></path>
</svg>