<svg width="2402" height="775" viewBox="0 0 2402 775" fill="none" xmlns="http://www.w3.org/2000/svg">
<path d="M2179.38 546.261L2166.18 552.259L1702.41 552.703C1302.08 553.076 1237.15 552.68 1227.84 549.739C1198.95 540.659 1169.72 512.323 1157.06 481.069C1153.17 471.453 1149.14 461.066 1148.14 458.032C1146.5 453.06 1144.16 456.678 1124.56 494.21C1112.6 517.155 1101.08 539.328 1098.94 543.507L1095.07 551.092H812.183C794.233 551.092 777.385 551.092 761.539 551.092C537.746 551.139 517.032 551.139 501.085 540.986C498.321 539.235 495.716 537.181 492.21 534.777C472.578 521.216 456.872 499.019 448.518 472.947C446.414 466.435 440.965 444.331 436.417 423.837L435.516 419.823C427.803 385.185 426.421 378.953 425.199 378.999C424.878 378.999 424.578 379.419 424.177 379.886C422.514 381.823 395.79 437.118 360.631 511.413C351.216 531.299 343.122 548.128 342.661 548.758C341.8 549.925 1.07266 548.852 0.0108947 547.685C-0.650206 546.961 28.8389 487.558 71.2695 404.044L119.33 309.513C232.498 86.8868 244.197 65.0396 260.885 45.5266C279.476 23.7728 301.353 9.53479 325.112 3.74623C345.206 -1.15538 547.022 -1.27208 566.754 3.60618C595.963 10.8185 621.846 34.0195 634.908 64.6895C638.815 73.9092 645.566 97.9738 650.714 121.011C655.642 143.162 660.13 161.275 660.671 161.251C661.212 161.251 670.467 144.726 681.225 124.512C692.003 104.299 707.329 75.9866 715.282 61.5852C723.255 47.1605 733.732 27.9975 738.561 18.9879L747.355 2.57918H1670.65L1664.06 16.0002C1657.63 29.1179 1610.67 119.121 1543.3 247.473C1524.81 282.671 1509.22 312.898 1508.66 314.648C1507.8 317.239 1513.83 317.682 1542.4 317.146L1577.2 316.515L1588.46 294.341C1594.63 282.134 1611.67 248.546 1626.3 219.65C1688.72 96.4566 1703.27 68.4241 1710.9 56.8003C1727.27 31.8954 1759.64 9.53479 1787.87 3.67621C1811.47 -1.2254 2298.08 -1.2254 2317.95 3.67621C2336.88 8.3444 2358.16 22.0222 2371.74 38.2442C2403.57 76.2433 2410.56 128.457 2391.41 185.082C2387.65 196.193 2311.52 352.04 2262.96 448.042C2250.38 472.877 2235.87 498.785 2230.7 505.601C2219.31 520.679 2197.23 538.161 2179.38 546.261ZM1234.35 497.198C1238.07 498.458 1427.93 499.182 1699.4 498.949L2158.16 498.575L2170.38 491.993C2191.58 480.579 2198.49 469.866 2245.83 374.868C2326.97 212.088 2349.48 165.336 2352.49 153.572C2356.75 136.837 2356.33 112.749 2351.53 97.7871C2346.1 80.9115 2332.53 63.4992 2318.17 55.0264L2306.41 48.0941H1795.56L1780.52 56.4502C1760.52 67.6072 1750.02 80.3747 1732.4 115.106C1724.38 130.885 1712.7 153.759 1706.43 165.966C1653.82 268.27 1624.28 327.392 1624.28 330.357C1624.28 331.104 1672.3 331.687 1730.99 331.687H1837.71L1879.58 248.827L1921.45 165.966H2026.28C2083.94 165.966 2131.12 166.55 2131.12 167.25C2131.12 169.747 2124.55 183.215 2089.29 252.935C2069.64 291.751 2048.84 333.298 2043.05 345.272C2037.26 357.245 2031.51 367.492 2030.25 368.052C2028.99 368.612 1892.04 368.799 1725.92 368.472L1423.88 367.866L1444.58 328.186C1505.88 210.571 1575.39 77.9239 1584.07 61.982C1587.45 55.7733 1590.22 49.8447 1590.22 48.7943C1590.22 47.7673 1538.05 46.9271 1474.27 46.9271C1383.94 46.9271 1357.87 47.5806 1356.29 49.8447C1355.17 51.4552 1345.45 69.5678 1334.71 90.1079C1221.44 306.829 1192.98 362.917 1189.21 376.829C1176.23 425.004 1198.79 485.154 1234.35 497.198ZM525.626 493.603C533.98 496.638 551.289 497.105 640.638 496.708L745.813 496.241L759.275 488.819C783.215 475.608 787.843 468.722 846.681 358.879C963.215 141.341 981.245 107.754 996.891 79.1143C1005.81 62.7756 1012.28 48.8177 1011.25 48.0941C1008.81 46.3435 812.844 46.6936 791.669 48.4676L775.402 49.8447L724.697 144.679C696.811 196.823 670.267 246.306 665.719 254.662C661.192 263.018 653.9 276.392 649.552 284.398C641.539 299.15 638.634 302.044 638.634 295.275C638.634 282.764 597.165 94.1226 592.457 85.253C586.628 74.2594 571.683 59.0644 560.945 53.2291C551.689 48.2108 549.766 48.0941 469.352 48.0708C424.177 48.0474 375.035 48.6076 360.171 49.3078C335.129 50.4749 332.124 51.1284 319.563 57.9907C311.049 62.6355 302.074 70.0346 295.523 77.7838C284.845 90.4347 271.803 115.199 158.815 337.522C142.508 369.616 118.027 417.699 104.425 444.377C90.8221 471.056 79.7036 493.37 79.7036 493.977C79.7036 494.584 132.211 495.074 196.398 495.051L313.092 495.027L319.162 481.63C329.059 459.806 434.695 237.53 437.299 233.071C437.88 232.068 438.22 230.761 438.681 230.691C440.184 230.481 443.089 243.738 460.978 325.548C462.942 334.535 465.085 344.338 467.409 355.028C477.947 403.157 488.063 447.272 489.907 453.06C494.695 468.208 513.085 489.075 525.626 493.603ZM836.964 495.938C836.964 496.755 888.63 497.408 951.776 497.408H1066.59L1084.64 462.98C1094.57 444.051 1111.98 410.696 1123.36 388.872C1134.72 367.049 1150.99 336.075 1159.48 320.017C1192.8 257.159 1233.62 178.313 1233.62 176.843C1233.62 176.003 1182.3 175.302 1119.57 175.302H1005.53L1001.66 181.721C998.073 187.697 987.194 208.283 915.816 343.941C840.711 486.718 836.964 493.93 836.964 495.938ZM1027.58 140.664C1030.89 143.255 1207.58 142.485 1224.61 139.801C1240.14 137.35 1254.54 129.041 1265.06 116.483C1269.68 110.951 1280.78 93.3289 1289.76 77.2703L1306.05 48.0941L1207.3 47.4872C1098.82 46.8337 1096.1 47.1138 1077.36 61.0017C1064.74 70.3614 1055.55 82.1253 1041.81 106.447C1025.16 135.926 1024.26 138.074 1027.58 140.664ZM2012.56 761.325L1999.9 769.331L1966.34 770.101C1947.89 770.544 1932.79 770.404 1932.79 769.821C1932.79 769.237 1939.6 750.518 1947.91 728.204C1956.23 705.89 1965.8 679.958 1969.19 670.552L1975.34 653.489L2006.65 654.213C2042.51 655.076 2047.9 656.99 2053.75 670.972C2057.08 678.861 2057.26 681.475 2055.21 692.119C2049.4 722.322 2033.54 748.09 2012.56 761.325ZM2123.97 763.915C2100.91 776.496 2075.91 774.909 2063.17 760.088C2058.64 754.789 2058 752.128 2058 738.357C2058 696.483 2090.91 656.687 2129.12 652.416C2146.64 650.455 2157.16 654.026 2165.22 664.693C2171.21 672.652 2171.57 674.099 2170.82 687.637C2169.18 717.654 2149.23 750.144 2123.97 763.915ZM1902.12 315.932C1902.6 316.889 1925.44 317.682 1952.9 317.682H2002.81L2006.15 311.754C2007.97 308.509 2018.75 287.246 2030.09 264.488C2043.43 237.74 2049.86 222.708 2048.34 221.868C2047.04 221.144 2024.04 220.631 1997.22 220.701L1948.45 220.817L1924.86 267.499C1911.89 293.174 1901.66 314.975 1902.12 315.932ZM1413.91 767.58C1412.28 772.085 1410.5 772.832 1401.28 772.832C1395.37 772.832 1390.07 772.272 1389.46 771.571C1388.86 770.871 1398.12 744.356 1410 712.635L1431.63 654.96L1444.82 654.26C1454.51 653.769 1458.04 654.376 1458.16 656.594C1458.26 658.274 1459.38 673.212 1460.66 689.808L1463.01 719.988L1489.05 686.914L1515.09 653.816L1528.54 653.793H1541.98L1534.67 674.216C1530.66 685.443 1520.96 711.958 1513.13 733.152L1498.89 771.665L1487.45 772.365C1479.59 772.855 1476.03 772.202 1476.03 770.264C1476.03 768.724 1481.06 753.879 1487.19 737.237C1493.32 720.618 1498.05 706.707 1497.7 706.333C1497.34 705.96 1488.01 717.35 1476.95 731.658C1459.28 754.509 1455.97 757.753 1449.68 758.36C1442.81 759.037 1442.47 758.71 1441.27 750.191C1440.57 745.313 1439.99 735.556 1439.97 728.484C1439.85 698.561 1437.9 701.455 1413.91 767.58ZM1650.32 756.493L1645.03 771.665L1632.83 772.365C1626.12 772.738 1620.19 772.201 1619.67 771.198C1618.85 769.611 1645.19 696.413 1658.39 663.503L1662.46 653.373L1692.31 654.166C1718.69 654.866 1722.8 655.52 1727.69 659.768C1736.06 667.05 1737.64 675.476 1733.54 690.671C1729.71 704.816 1717.11 722.462 1705.75 729.604L1699 733.829L1702.71 750.261C1702.93 751.195 1703.13 752.082 1703.33 752.945C1705.81 763.985 1706.95 769.004 1705.31 771.151C1703.97 772.948 1700.68 772.762 1694.69 772.458C1694.13 772.412 1693.55 772.388 1692.93 772.365C1686.22 772.015 1682.75 772.085 1680.51 770.171C1677.78 767.837 1676.92 762.562 1674.26 749.958C1672.16 739.944 1672.09 739.898 1663.86 740.621C1655.71 741.321 1655.53 741.531 1650.32 756.493ZM1309.21 769.914C1306.91 773.345 1283.71 773.975 1283.71 770.591C1283.71 769.377 1293.28 742.582 1305 711.071L1326.32 653.793L1348.58 653.933C1379.25 654.119 1389.54 656.384 1395.27 664.133C1401.1 672.022 1401.22 682.385 1395.67 696.997C1390.59 710.418 1377.99 726.897 1369.79 730.841C1362.76 734.226 1362.74 734.482 1367.63 754.976C1372.02 773.392 1372 773.415 1354.69 772.365L1342.99 771.665L1336.62 741.321L1320.59 739.921L1315.86 753.459C1313.28 760.905 1310.27 768.304 1309.21 769.914ZM1122.08 740.154L1110.78 772.832H1098.08C1089.18 772.832 1085.42 771.968 1085.5 769.914C1085.58 768.304 1094.85 742.302 1106.13 712.145L1126.65 657.294L1155.53 656.64C1186.11 655.963 1193.4 657.597 1198.65 666.303C1205.94 678.417 1198.33 704.279 1182.5 721.108C1169.16 735.323 1157.74 740.154 1137.42 740.154H1122.08ZM1846.39 759.924L1839.63 770.358L1825.97 770.428L1812.31 770.498L1816.96 763.775C1819.5 760.088 1838.27 733.829 1858.63 705.423L1895.67 653.793H1923.39L1922.09 689.178C1921.37 708.644 1920.77 734.903 1920.77 747.53V770.498H1894.73V749.491H1853.12L1846.39 759.924ZM1607.53 748.324L1597.97 772.832H1560.03C1539.17 772.832 1522.15 772.038 1522.19 771.081C1522.23 770.124 1531.94 743.586 1543.76 712.145L1565.28 654.96L1640.6 653.699L1639.24 658.998C1638.5 661.915 1636.36 667.447 1634.47 671.298L1631.07 678.301L1582.89 679.608L1579.54 687.777C1577.7 692.282 1576.2 696.974 1576.2 698.211C1576.2 699.518 1585.03 700.475 1597.23 700.475C1608.81 700.475 1618.27 700.965 1618.27 701.572C1618.27 702.179 1616.28 707.43 1613.86 713.242L1609.45 723.816H1566.04L1562.09 734.506C1559.93 740.388 1558.17 745.616 1558.17 746.106C1558.17 746.62 1569.26 747.32 1582.85 747.67L1607.53 748.324ZM1267.3 761.161L1263.13 772.832H1225.35C1204.56 772.832 1187.55 771.921 1187.55 770.824C1187.55 764.732 1227.57 659.815 1231.1 656.71C1234.61 653.606 1292.7 652.812 1301 655.777L1305.26 657.294L1300.98 667.797L1296.69 678.301L1271.55 678.954L1246.41 679.608L1243.54 688.291C1241.96 693.076 1240.36 697.767 1239.98 698.724C1239.61 699.681 1248.85 700.475 1260.51 700.475C1272.91 700.475 1281.7 701.408 1281.7 702.739C1281.7 703.999 1279.72 709.764 1277.3 715.576L1272.89 726.15H1230.42L1226.13 736.42C1223.79 742.045 1222.41 747.297 1223.07 748.09C1223.73 748.861 1234.89 749.491 1247.87 749.491H1271.47L1267.3 761.161ZM1033.29 772.668C1014.78 777.57 1000.22 774.699 990.921 764.336C981.305 753.599 982.687 742.769 999.635 695.97L1014.08 656.127H1040.94L1027.1 693.612C1019.49 714.246 1013.26 733.619 1013.26 736.677C1013.26 743.235 1020.09 749.491 1027.22 749.491C1033.53 749.467 1044.11 742.138 1048.1 735.019C1049.74 732.055 1057.11 713.382 1064.46 693.472C1071.8 673.562 1077.95 657.107 1078.11 656.897C1078.27 656.664 1084.02 655.753 1090.91 654.843C1101.38 653.466 1103.41 653.769 1103.41 656.757C1103.41 663.012 1076.6 732.452 1069.95 743.399C1062.22 756.143 1045.59 769.424 1033.29 772.668ZM934.006 771.828C916.837 777.85 897.505 775.166 884.063 764.896C877.211 759.667 877.692 756.633 887.108 745.919C894.019 738.077 895.662 737.167 898.627 739.664C912.19 751.125 930.34 752.945 938.293 743.679C942.4 738.894 942.901 737.003 941.138 733.175C939.956 730.585 938.153 728.484 937.131 728.484C932.644 728.484 912.29 718.214 908.864 714.223C904.377 708.994 903.896 696.6 907.782 685.816C911.809 674.566 925.352 661.589 937.372 657.434C956.283 650.875 982.767 653.536 989.879 662.686C992.944 666.654 992.603 667.541 984.169 677.18L975.174 687.474L968.684 682.992C959.108 676.41 942.62 676.714 936.71 683.576C930.42 690.905 933.505 695.736 948.35 701.805C965.118 708.644 968.964 711.492 970.406 718.144C974.694 738.054 957.345 763.635 934.006 771.828ZM1799.69 764.079C1783.52 773.672 1759.66 775.563 1748 768.164C1736.52 760.881 1733.74 754.299 1734.92 737.167C1736.96 707.757 1756.94 673.703 1779.13 661.869C1806.18 647.444 1836.49 650.058 1844.5 667.517C1846.3 671.438 1845.54 673.189 1839.49 679.001C1829.44 688.664 1822.12 692.936 1821.2 689.715C1818.68 680.985 1814.81 678.464 1803.85 678.464C1788.23 678.464 1777.81 687.077 1769.02 707.267C1760.8 726.126 1760.3 738.38 1767.55 743.889C1774.49 749.187 1788.43 747.087 1798.67 739.174C1807.62 732.288 1809.22 732.662 1813.73 742.815C1817.7 751.755 1815.93 754.439 1799.69 764.079ZM2092.05 744.379C2098.18 748.417 2108.4 747.647 2117.06 742.512C2136.27 731.098 2150.51 690.415 2138.69 680.775C2130.58 674.146 2113.61 677.671 2102.85 688.221C2095.38 695.55 2085.04 719.661 2085.08 729.651C2085.1 737.75 2086.5 740.691 2092.05 744.379ZM1970.01 745.126C1971.77 748.464 1990.46 747.437 1998.44 743.539C2008.8 738.497 2014.4 731.775 2021.14 716.3C2027.25 702.272 2028.75 687.17 2024.54 682.269C2023.1 680.588 2016.11 679.468 2006.99 679.468H1991.83L1980.39 711.282C1974.08 728.764 1969.41 744.006 1970.01 745.126ZM1133.06 715.553C1135.16 718.027 1151.75 716.743 1158.16 713.639C1165.15 710.231 1170.52 702.389 1172.66 692.515C1174.77 682.736 1170.76 679.468 1156.66 679.468H1144.3L1138.15 696.88C1134.76 706.473 1132.46 714.876 1133.06 715.553ZM1331.19 715.063C1332.59 718.004 1349.54 717.023 1356.59 713.569C1364.68 709.624 1372.38 695.993 1371.49 687.1C1370.87 680.822 1370.45 680.612 1357.31 679.935L1343.77 679.258L1337.06 696.273C1333.37 705.656 1330.73 714.106 1331.19 715.063ZM1666.35 713.546C1666.35 714.059 1672.07 714.479 1679.11 714.479C1689.14 714.479 1693.01 713.406 1697.38 709.414C1703.97 703.369 1709.08 690.251 1707.33 683.856C1706.23 679.771 1704.53 679.351 1692.07 679.958L1678.04 680.635L1672.2 696.623C1668.97 705.423 1666.35 713.032 1666.35 713.546ZM1872.13 724.726C1874.53 727.527 1894.83 726.22 1895.63 723.232C1897.31 716.813 1898.65 686.47 1897.25 686.61C1894.75 686.82 1870.81 723.185 1872.13 724.726Z" fill="#112709"></path>
<path d="M1234.35 497.198C1198.79 485.154 1176.23 425.004 1189.21 376.828C1192.98 362.917 1221.44 306.829 1334.71 90.1078C1345.45 69.5678 1355.17 51.4552 1356.29 49.8446C1357.87 47.5805 1383.93 46.927 1474.27 46.927C1538.05 46.927 1590.22 47.7673 1590.22 48.7943C1590.22 49.8446 1587.45 55.7732 1584.07 61.9819C1575.39 77.9238 1505.88 210.571 1444.58 328.186L1423.88 367.866L1725.92 368.472C1892.04 368.799 2028.99 368.612 2030.25 368.052C2031.51 367.492 2037.26 357.245 2043.05 345.271C2048.84 333.298 2069.64 291.751 2089.29 252.935C2124.55 183.215 2131.12 169.747 2131.12 167.25C2131.12 166.55 2083.94 165.966 2026.28 165.966H1921.45L1879.58 248.827L1837.71 331.687H1730.99C1672.29 331.687 1624.27 331.103 1624.27 330.357C1624.27 327.392 1653.82 268.27 1706.43 165.966C1712.7 153.759 1724.38 130.885 1732.39 115.106C1750.02 80.3746 1760.52 67.6071 1780.51 56.4501L1795.56 48.0941H2306.41L2318.17 55.0263C2332.53 63.4991 2346.1 80.9115 2351.53 97.787C2356.33 112.749 2356.75 136.836 2352.49 153.572C2349.48 165.336 2326.96 212.088 2245.83 374.868C2198.49 469.866 2191.58 480.579 2170.38 491.993L2158.16 498.575L1699.4 498.949C1427.93 499.182 1238.07 498.458 1234.35 497.198ZM525.626 493.603C513.085 489.075 494.694 468.208 489.906 453.06C488.063 447.272 477.946 403.157 467.409 355.028C465.085 344.338 462.941 334.535 460.978 325.548C443.088 243.738 440.183 230.481 438.681 230.691C438.22 230.761 437.879 232.068 437.298 233.071C434.694 237.529 329.058 459.806 319.162 481.629L313.092 495.027L196.397 495.051C132.211 495.074 79.7031 494.584 79.7031 493.977C79.7031 493.37 90.8216 471.056 104.424 444.377C118.027 417.699 142.508 369.616 158.815 337.522C271.803 115.199 284.845 90.4346 295.522 77.7838C302.073 70.0346 311.048 62.6355 319.562 57.9906C332.123 51.1284 335.128 50.4748 360.17 49.3078C375.035 48.6076 424.177 48.0474 469.352 48.0707C549.766 48.0941 551.689 48.2107 560.944 53.2291C571.682 59.0643 586.627 74.2593 592.457 85.2529C597.165 94.1225 638.634 282.764 638.634 295.275C638.634 302.044 641.539 299.15 649.552 284.398C653.899 276.392 661.191 263.018 665.719 254.662C670.266 246.306 696.811 196.823 724.697 144.679L775.401 49.8446L791.669 48.4675C812.844 46.6936 1008.81 46.3435 1011.25 48.0941C1012.28 48.8176 1005.81 62.7756 996.89 79.1142C981.244 107.754 963.214 141.341 846.68 358.879C787.842 468.722 783.214 475.608 759.275 488.819L745.812 496.241L640.637 496.708C551.288 497.105 533.979 496.638 525.626 493.603ZM836.964 495.938C836.964 493.93 840.71 486.718 915.815 343.941C987.194 208.283 998.072 187.696 1001.66 181.721L1005.52 175.302H1119.57C1182.3 175.302 1233.62 176.003 1233.62 176.843C1233.62 178.313 1192.8 257.159 1159.48 320.017C1150.99 336.075 1134.72 367.049 1123.36 388.872C1111.98 410.696 1094.57 444.051 1084.64 462.98L1066.59 497.408H951.775C888.63 497.408 836.964 496.754 836.964 495.938ZM1027.58 140.664C1024.26 138.074 1025.16 135.926 1041.8 106.447C1055.55 82.1252 1064.74 70.3613 1077.36 61.0016C1096.1 47.1137 1098.82 46.8337 1207.3 47.4872L1306.05 48.0941L1289.76 77.2703C1280.78 93.3289 1269.68 110.951 1265.06 116.483C1254.54 129.041 1240.14 137.35 1224.61 139.801C1207.58 142.485 1030.89 143.255 1027.58 140.664Z" fill="#16350B"></path>
</svg>