<svg width="1329" height="775" viewBox="0 0 1329 775" fill="none" xmlns="http://www.w3.org/2000/svg">
<path d="M51.72 773.427C42.5169 770.87 40.6961 768.443 44.7183 764.112C46.655 762.011 47.284 761.998 52.9449 763.851C61.1052 766.552 69.5635 766.408 74.0988 763.499C79.6935 759.937 76.3996 756.479 64.6805 753.609C46.6218 749.186 39.4381 741.879 44.917 733.529C46.3074 731.415 49.9985 728.728 53.1435 727.553C59.6982 725.1 75.9858 724.722 83.7158 726.849C88.847 728.258 88.8636 728.31 86.331 732.172C84.5268 734.912 82.9709 735.838 81.0674 735.251C75.0919 733.451 64.4653 733.02 61.0721 734.455C54.1863 737.365 58.1589 742.101 69.9276 744.984C86.1655 748.964 90.6181 752.33 90.6181 760.615C90.6181 771.262 69.2821 778.294 51.72 773.427ZM150.356 773.375C147.26 772.475 142.477 769.539 139.729 766.852C134.846 762.063 134.73 761.607 133.985 744.345L133.224 726.731H140.888H148.551V743.601C148.551 760.263 148.601 760.498 152.905 763.172C158.814 766.826 165.948 766.63 170.98 762.677C174.853 759.61 175.035 758.736 175.035 743.106V726.731H181.656C189.303 726.731 188.857 725.348 188.327 747.607C187.979 762.403 186.142 766.708 178.246 771.353C172.917 774.484 157.937 775.58 150.356 773.375ZM826.372 773.049C802.04 766.265 798.978 738.435 821.456 728.401C828.855 725.101 845.854 724.318 855.09 726.862C860.9 728.454 861.48 730.032 857.821 734.168C855.438 736.843 855.074 736.882 848.834 734.951C840.309 732.303 831.437 733.633 825.296 738.474C821.224 741.684 820.579 743.197 820.579 749.564C820.579 755.944 821.224 757.445 825.329 760.693C832.778 766.552 840.822 767.1 854.081 762.663C857.954 761.359 861.595 768.091 858.301 770.492C852.21 774.941 837.429 776.128 826.372 773.049ZM1007.62 773.845L1003.48 772.932L1003.04 750.008L1002.57 727.071L1007.79 726.249C1021.72 724.057 1042.58 726.392 1049.98 730.972C1052.39 732.472 1055.75 736.099 1057.44 739.022C1066.02 753.909 1055.31 769.787 1034.1 773.597C1025.76 775.097 1013.88 775.215 1007.62 773.845ZM1035.81 763.89C1042.17 761.307 1045.69 755.709 1045.69 748.22C1045.69 743.288 1044.81 741.488 1040.86 738.37C1036.57 734.99 1034.87 734.56 1025.96 734.56H1015.9V750.216V765.873H1023.43C1027.57 765.873 1033.14 764.986 1035.81 763.89ZM1122.66 772.527C1110.13 767.961 1103.62 760.106 1103.62 749.564C1103.62 734.782 1116.52 725.518 1137.19 725.453C1157.4 725.401 1169.83 734.638 1169.83 749.695C1169.83 768.013 1144.24 780.408 1122.66 772.527ZM1149.31 761.437C1154.23 757.562 1154.94 756.166 1154.94 750.412C1154.94 741.775 1152.44 737.769 1145.44 735.16C1124.17 727.188 1107.07 750.425 1125.31 762.52C1132.94 767.582 1142.03 767.178 1149.31 761.437ZM1222.7 773.845C1212.8 771.301 1211.17 769.996 1213.25 766.395C1214.82 763.681 1215.97 763.211 1219.41 763.864C1235.61 766.969 1245.98 765.717 1245.98 760.641C1245.98 757.562 1241.34 755.148 1229.89 752.226C1210.45 747.294 1206.93 732.798 1223.79 727.24C1230.17 725.153 1247.1 724.84 1253.31 726.705C1257.94 728.088 1258.59 730.137 1255.41 733.412C1253.66 735.225 1252.12 735.33 1244.8 734.155C1234.09 732.42 1227.25 734.312 1228.07 738.774C1228.48 741.044 1231.18 742.401 1240.73 745.18C1247.42 747.111 1254.28 749.708 1256.01 750.947C1263.67 756.401 1260.76 767.739 1250.64 771.862C1244.62 774.315 1228.88 775.437 1222.7 773.845ZM236.279 750.438C236.279 723.561 234.955 725.466 253.659 725.453C274.168 725.427 285.936 731.076 285.936 740.94C285.936 750.751 273.837 758.019 257.466 758.032L251.342 758.045L250.845 765.547L250.349 773.049L243.314 773.454L236.279 773.845V750.438ZM269.384 746.302C273.373 743.158 273.522 741.292 270.112 737.456C268.043 735.134 265.941 734.56 259.353 734.56H251.176V741.736V748.912H258.625C263.872 748.912 267.05 748.142 269.384 746.302ZM330.082 772.827C329.469 772.358 328.973 761.855 328.973 749.512V727.071L343.456 726.353C351.418 725.962 361.283 725.74 365.388 725.857C372.505 726.066 372.836 726.262 372.836 729.993V733.907L357.426 734.286L342.016 734.664L342.529 739.505L343.042 744.345L355.043 744.724L367.043 745.115V748.912V752.708L355.043 753.1L343.042 753.478V759.349V765.221L358.353 765.599L373.664 765.978V769.839V773.701H352.427C340.741 773.701 330.677 773.31 330.082 772.827ZM417.809 772.827C417.197 772.358 416.7 761.815 416.7 749.421V726.888L424.331 725.988C434.742 724.761 449.822 726.001 456.972 728.675C467.831 732.733 469.022 743.223 459.521 751.025L454.556 755.083L461.259 763.251C464.934 767.739 467.549 771.94 467.053 772.566C466.573 773.193 463.61 773.701 460.481 773.701C455.317 773.701 454.142 772.932 447.753 765.247C441.496 757.745 440.105 756.792 435.322 756.766L429.942 756.74V765.221V773.701H424.43C421.385 773.701 418.405 773.31 417.809 772.827ZM445.717 747.02C450.368 745.493 451.46 744.423 451.46 741.41C451.46 736.073 448.646 734.56 438.715 734.56H429.942V740.862C429.942 744.332 430.439 747.568 431.051 748.038C432.888 749.486 439.642 749.016 445.717 747.02ZM509.427 771.418C509.443 770.166 510.552 760.328 511.893 749.564C513.234 738.8 514.326 729.263 514.343 728.362C514.359 727.305 516.908 726.731 521.526 726.731H528.694L536.838 739.753C541.323 746.902 545.378 752.774 545.875 752.8C546.372 752.813 550.427 746.955 554.913 739.779L563.056 726.731H570.008H576.944L577.921 732.929C580.072 746.459 582.191 771.379 581.314 772.501C580.801 773.167 577.921 773.701 574.908 773.701H569.446L568.386 765.677C567.807 761.267 567.327 754.522 567.327 750.673C567.327 746.837 566.748 743.693 566.052 743.693C565.341 743.693 561.219 749.303 556.899 756.179C546.504 772.671 544.617 772.605 534.024 755.435C526.459 743.184 526.343 743.093 525.416 747.607C524.887 750.112 524.092 756.427 523.645 761.633C523.198 766.839 522.371 771.679 521.808 772.397C521.245 773.114 518.216 773.701 515.088 773.701C510.751 773.701 509.394 773.154 509.427 771.418ZM626.916 750.373V726.979L642.227 726.288C650.652 725.896 660.517 725.701 664.158 725.831C670.349 726.066 670.779 726.34 670.779 729.993V733.907L655.369 734.286L639.959 734.664L640.472 739.505L640.985 744.345L653.813 744.724L666.641 745.102V748.964V752.826H653.317H639.975L640.489 759.023L640.985 765.221L656.395 765.599L671.822 765.978L671.293 769.513L670.779 773.049L648.848 773.414L626.916 773.78V750.373ZM716.299 750.451C716.299 727.266 716.332 727.031 720.023 726.249C726.031 724.983 740.73 725.309 748.692 726.888C765.724 730.267 769.614 744.619 755.66 752.591C752.763 754.248 752.763 754.431 755.776 757.81C760.758 763.394 765.906 772.005 764.78 772.893C764.218 773.336 761.354 773.701 758.424 773.701C753.69 773.701 752.317 772.749 746.093 765.221C740.184 758.071 738.346 756.74 734.39 756.74C729.789 756.74 729.689 756.897 729.209 764.895L728.713 773.049L722.506 773.454L716.299 773.858V750.451ZM748.096 744.984C754.27 738.983 749.85 734.56 737.701 734.56H729.54V741.905V749.251L737.337 748.559C742.65 748.09 746.076 746.955 748.096 744.984ZM898.375 772.697C898.375 771.157 909.664 749.642 917.178 736.843C922.21 728.271 923.733 726.731 927.159 726.731C929.394 726.731 932.274 726.405 933.582 726.014C935.32 725.492 938.266 729.289 944.407 740.04C955.15 758.775 961.39 771.875 960.082 772.906C959.519 773.336 956.573 773.701 953.544 773.701C948.628 773.701 947.701 773.114 945.351 768.483L942.702 763.264H929.659H916.616L913.702 768.156C911.186 772.371 909.928 773.101 904.582 773.454C901.172 773.675 898.375 773.336 898.375 772.697ZM938.101 754.248C938.101 752.187 931.066 738.474 930.006 738.474C928.897 738.474 921.548 752.108 921.548 754.157C921.548 754.861 925.272 755.435 929.824 755.435C934.376 755.435 938.101 754.9 938.101 754.248ZM48.6081 675.43C42.1527 670.015 20.6677 642.59 8.23684 623.867C-0.237983 611.12 -0.982831 609.371 0.771722 606.318C2.16212 603.931 4.86016 602.469 9.84243 601.4C56.2222 591.432 72.2781 584.229 83.4013 568.416C87.5725 562.48 88.1352 560.353 88.1352 550.568C88.1352 534.102 82.9212 526.521 56.785 505.059C45.6452 495.9 33.3468 485.253 29.4901 481.404C20.5684 472.506 11.8453 458.898 8.36926 448.46C4.82705 437.787 4.84362 418.021 8.43549 407.257C20.3036 371.559 66.0875 341.068 131.171 325.503C145.936 321.98 154.411 320.701 164.177 320.532C179.72 320.271 175.962 316.513 195.924 352.276C213.718 384.15 214.678 386.577 210.888 389.891C208.537 391.926 204.945 392.513 191.108 393.074C171.758 393.857 160.651 396.219 150.124 401.777C138.885 407.713 134.681 413.545 133.919 424.309C133.323 432.607 133.754 434.134 139.216 442.719C143.288 449.112 152.044 458.297 166.792 471.658C195.163 497.348 206.551 509.051 213.007 519.124C235.882 554.847 224.659 600.16 184.685 633.444C159.195 654.671 123.293 669.793 80.6867 677.243C59.7148 680.909 54.8153 680.635 48.6081 675.43ZM595.466 669.793C584.525 668.697 562.179 663.896 550.758 660.177C516.164 648.944 484.019 623.71 469.949 596.768C460.663 578.997 458.909 570.517 458.909 543.418C458.909 521.289 459.323 517.532 462.749 508.438C480.046 462.525 519.838 434.33 581.396 424.375C597.452 421.778 637.658 421.491 653.399 423.853C697.23 430.428 731.775 448.068 754.121 475.298C779.347 506.037 785.752 554.142 769.564 591.04C755.792 622.419 727.206 647.026 689.666 659.825C667.701 667.301 653.747 669.532 626.088 669.976C612.432 670.198 598.644 670.119 595.466 669.793ZM634.017 588.418C659.689 582.168 676.556 558.761 671.789 535.994C666.807 512.261 648.516 496.8 623.191 494.934C589.673 492.468 563.702 513.357 563.818 542.674C563.884 559.1 570.836 571.456 584.906 580.185C601.723 590.596 615.544 592.919 634.017 588.418ZM1150.8 669.271C1114.91 664.94 1081.01 650.627 1054.79 628.76C1036.24 613.273 1026.32 600.108 1017.29 578.958C1012.83 568.507 1012.04 564.528 1011.31 548.976C1010.05 522.333 1014.29 505.972 1027.95 484.614C1045.66 456.914 1081.87 434.33 1124.31 424.518C1144.34 419.886 1183.67 418.66 1204.61 422C1261.22 431.042 1303.63 467.248 1314.77 516.018C1317.68 528.779 1317.81 544.918 1315.05 549.224C1310.89 555.695 1305.66 556.752 1260.04 560.222C1236.37 562.036 1206.94 564.15 1194.65 564.946C1154.49 567.503 1129.88 569.825 1128.12 571.208C1125.32 573.413 1141.86 585.417 1153.71 589.775C1181.24 599.925 1214.34 597.733 1254.07 583.107C1261.7 580.289 1270.44 577.993 1273.5 577.993C1278.22 577.993 1279.71 578.815 1283.52 583.538C1292.65 594.876 1312.18 626.007 1312.18 629.242C1312.18 634.07 1305.55 639.602 1290.12 647.652C1273.98 656.068 1257.38 661.782 1236.04 666.284C1222.55 669.141 1216.08 669.663 1190.52 670.041C1174.14 670.276 1156.26 669.937 1150.8 669.271ZM1162.35 516.031C1201.66 511.504 1209.56 509.717 1209.56 505.372C1209.56 496.539 1198.04 483.518 1185.89 478.638C1176.41 474.815 1162.65 474.098 1150.85 476.811C1143.12 478.586 1139.29 480.517 1131.66 486.532C1123.77 492.755 1121.55 495.547 1118.67 502.88C1115.18 511.817 1114.28 518.119 1116.32 519.711C1118.03 521.068 1120.36 520.885 1162.35 516.031ZM319.041 666.714C288.005 660.112 272.281 648.918 265.891 628.877C264.071 623.175 263.723 610.18 264.186 565.441C264.617 523.168 264.253 508.438 262.763 506.22C260.893 503.48 259.982 503.323 250.051 504.054C240.401 504.772 238.961 504.55 235.601 501.901C232.191 499.227 231.76 497.309 230.784 480.739C230.204 470.718 229.261 458.115 228.715 452.739C227.324 439.431 228.599 438.244 245.317 437.161C263.855 435.974 264.865 434.76 263.69 415.007C261.141 371.807 261.058 360.743 263.177 357.494C266.107 353.045 272.115 352.797 294.693 356.216C304.905 357.755 325.695 360.678 340.923 362.713C356.135 364.749 369.41 366.823 370.403 367.306C374.756 369.433 375.187 375.082 372.903 400.694C370.536 427.336 370.999 432.086 376.163 433.638C377.67 434.095 390.332 434.473 404.319 434.473C418.289 434.473 431.564 435.021 433.815 435.7C440.552 437.709 441.479 442.954 440.122 470.849L438.88 496.134L434.312 499.227C429.909 502.214 428.817 502.319 401.919 502.319C379.226 502.319 373.697 502.684 372.009 504.276C370.453 505.75 370.138 514.296 370.668 539.83C371.33 570.712 371.661 573.844 374.823 578.645C383.678 592.032 399.237 595.711 427.774 591.118C448.448 587.804 450.897 587.791 453.049 590.949C455.036 593.858 455.218 623.893 453.331 637.253C452.205 645.264 451.46 646.674 446.66 649.818C440.205 654.071 420.044 660.386 398.493 664.914C375.899 669.65 337.017 670.524 319.041 666.714ZM806.095 664.118C803.132 662.696 800.683 660.791 800.633 659.877C800.583 658.977 800.318 626.816 800.054 588.431C799.59 524.447 799.243 517.141 795.965 500.792C792.638 484.144 787.523 466.569 781.978 452.739C779.231 445.876 780.621 441.571 786.183 439.705C788.252 439.014 801.494 436.926 815.613 435.073C829.732 433.221 848.949 430.559 858.318 429.176C878.826 426.136 885.712 426.006 888.46 428.615C889.586 429.698 891.208 436 892.052 442.641C892.896 449.269 894.27 455.244 895.13 455.91C896.074 456.667 899.053 455.623 902.894 453.209C928.649 437.004 970.543 426.201 990.886 430.52C1000.87 432.634 1001.69 434.891 999.51 453.77C998.5 462.42 997.689 478.286 997.689 489.024C997.689 516.031 999.725 514.505 962.664 515.431C930.983 516.214 927.59 516.945 918.701 524.93C910.028 532.719 909.283 539.856 910.557 602.913C911.186 633.509 911.203 659.512 910.624 660.712C908.008 666.088 902.314 666.714 855.835 666.714C814.537 666.701 811.111 666.531 806.095 664.118ZM1104.2 406.369C1103.66 405.26 1106.67 396.897 1110.87 387.777C1115.1 378.657 1118.54 370.737 1118.52 370.163C1118.52 369.602 1116.5 369.302 1114.04 369.511C1107.68 370.046 1106.98 366.158 1113.06 364.201C1125.14 360.339 1147.37 359.008 1158.68 361.487C1174.3 364.905 1172.86 378.409 1156.16 385.102L1151.59 386.942L1157.67 393.766C1161.03 397.549 1165.46 400.942 1167.62 401.372C1169.75 401.79 1171.49 402.651 1171.49 403.264C1171.49 405.143 1162.05 408.379 1156.56 408.379C1148.98 408.379 1145.82 406.565 1138.35 397.915C1134.66 393.622 1130.95 390.113 1130.11 390.113C1129.26 390.113 1127.68 393.596 1126.55 397.837C1124.98 403.838 1123.65 405.887 1120.62 406.97C1114.75 409.083 1105.35 408.744 1104.2 406.369ZM1141.84 381.919C1152.12 376.465 1152.77 367.932 1142.92 367.932C1137.77 367.932 1137.28 368.324 1135.24 374.13C1134.03 377.535 1132.67 381.358 1132.21 382.61C1131.04 385.807 1135.06 385.52 1141.84 381.919ZM1180.23 405.887C1177.28 404.425 1174.4 401.698 1173.81 399.82C1172.47 395.618 1175.31 387.686 1179.77 383.224C1187.28 375.708 1207.54 371.912 1215.82 376.491C1220.29 378.957 1220.72 385.037 1216.64 388.26C1212.9 391.208 1201.43 395.266 1196.73 395.305C1192.59 395.331 1192 396.623 1194.99 398.985C1200.56 403.369 1221.35 397.458 1223.45 390.895C1226.06 382.676 1240.68 374.547 1252.94 374.482L1259.08 374.456L1261.12 366.732C1262.69 360.73 1264.02 358.682 1267.05 357.599C1272 355.824 1282.39 355.759 1282.39 357.508C1282.39 358.238 1279.87 365.427 1276.81 373.49C1269.78 391.952 1268.49 397.471 1270.92 398.645C1273.44 399.872 1278.24 395.892 1282.79 388.808C1288.13 380.484 1298 375.421 1310.28 374.717C1322.76 374.012 1327.08 375.734 1327.08 381.449C1327.08 387.516 1318.36 393.348 1306.39 395.279C1299.14 396.467 1299.99 399.807 1307.65 400.302C1311.77 400.576 1316.07 399.728 1320.44 397.784C1331.93 392.696 1331.82 398.045 1320.31 404.047C1314.9 406.865 1310.96 407.765 1302.35 408.157C1292.24 408.6 1290.87 408.34 1285.85 405.013C1281.35 402.038 1279.91 401.672 1277.66 402.951C1272.21 406.082 1263.74 408.522 1259.63 408.131C1256.19 407.805 1253.71 405.952 1251.55 402.116C1251.42 401.907 1248.52 403.225 1245.11 405.052C1236.56 409.631 1230.8 409.383 1225.28 404.217C1221.56 400.733 1220.4 400.315 1218.1 401.633C1206.8 408.131 1188.82 410.14 1180.23 405.887ZM1250.39 393.361C1254.67 387.229 1255.94 380.836 1253.04 380.04C1250.2 379.257 1243.18 385.572 1240.93 390.948C1236.99 400.355 1244.22 402.207 1250.39 393.361ZM1202.91 386.251C1205.39 382.597 1204.97 380.979 1201.6 380.979C1198.59 380.979 1192.3 389.121 1194.17 390.582C1195.61 391.717 1201 389.043 1202.91 386.251ZM1307.88 387.921C1310.31 386.003 1312.1 383.563 1311.84 382.493C1310.94 378.853 1307.33 379.466 1303.96 383.824C1297.98 391.561 1300.25 393.935 1307.88 387.921ZM764.3 371.781C650.701 368.963 534.951 348.427 435.735 313.473C303.896 267.038 207.395 203.133 160.833 131.438C149.545 114.059 141.748 97.2802 136.7 79.5099C133.389 67.8457 132.827 62.3267 132.827 41.0988C132.827 17.666 135.31 0 138.62 0C139.282 0 140.755 4.5274 141.881 10.0594C147.227 36.1539 167.918 70.5856 193.872 96.5496C258.923 161.629 361.746 215.971 494.05 255.152C507.01 258.988 521.162 262.993 525.499 264.037C606.689 283.673 661.676 292.193 741.955 297.608C772.03 299.643 846.665 299.656 875.201 297.634C1019.7 287.392 1119.25 260.762 1195.69 211.9C1232.09 188.637 1257.33 161.003 1270.57 129.937C1275.5 118.352 1275.52 118.338 1276.7 123.231C1278.53 130.994 1276.38 166.705 1273.44 177.338C1263.34 213.544 1239.55 247.441 1205.22 274.475C1157.29 312.22 1082.09 340.598 987.129 356.777C914.166 369.211 846.02 373.803 764.3 371.781ZM1092.04 210.687C1040.79 202.441 999.742 170.906 988.453 131.125C969.997 66.0582 1034.04 3.96635 1119.65 3.92721C1156.39 3.90112 1184.76 12.6167 1210.97 31.9657C1239.59 53.0892 1254.76 83.137 1252.05 113.25C1250.68 128.594 1247.35 137.792 1237.5 153.605C1211.22 195.748 1149.54 219.95 1092.04 210.687Z" fill="#16350B"></path>
</svg>