<svg width="2124" height="775" viewBox="0 0 2124 775" fill="none" xmlns="http://www.w3.org/2000/svg">
<path fill-rule="evenodd" clip-rule="evenodd" d="M18.2084 61.4501C9.02753 95.2476 1.63689 122.991 1.7847 123.101C1.93252 123.21 6.69263 123.69 12.3643 124.165L22.6756 125.032L25.1405 120.22C29.746 111.229 44.8886 91.4789 54.5594 81.8489C88.0705 48.479 139.847 28.7398 201.888 25.6837C218.194 24.8802 218.982 24.9534 218.982 27.2817C218.982 29.8295 199.2 90.6136 174.371 164.355C166.385 188.075 155.563 220.253 150.324 235.861C137.288 274.698 110.873 351.628 103.985 370.819C86.6266 419.184 71.614 432.699 30.9066 436.609L15.0235 438.136L13.7466 442.631C13.0445 445.104 12.0604 448.688 11.5609 450.596L10.6521 454.064H164.481H318.311L320.469 446.643L322.628 439.222L312.89 438.389C282.773 435.816 267.087 429.801 260.361 418.246C256.921 412.335 257.353 395.43 261.266 382.802C264.74 371.598 300.447 270.403 318.236 221.356C336.048 172.244 369.829 77.4445 378.464 52.3435C382.759 39.8568 386.792 29.1244 387.427 28.4925C389.053 26.8794 423.662 29.7753 438.205 32.7431C476.543 40.5644 501.352 59.9226 513.681 91.6327C517.743 102.079 521.451 118.911 521.451 126.898V132.435H533.084C539.483 132.435 544.719 132.01 544.719 131.49C544.721 130.969 549.674 108.124 555.728 80.7226C570.935 11.8927 573.116 1.36597 572.325 0.635687C571.944 0.28631 450.869 0 303.267 0H34.9003L18.2084 61.4501ZM1282.69 6.86899C1242.49 13.8742 1218.4 45.5338 1229.06 77.336C1237.25 101.772 1264.08 117.802 1296.78 117.802C1318.6 117.802 1335.7 111.771 1349.41 99.2434C1358.44 91.0021 1362.46 84.7209 1365.34 74.3846C1376.67 33.6563 1333.12 -1.92095 1282.69 6.86899ZM1031.55 78.8432C1012.39 95.9829 997.834 107.159 979.945 118.463C953.041 135.463 921.315 148.749 894.923 154.069L880.387 156.999L876.603 167.735C874.522 173.641 872.53 179.183 872.174 180.049C871.673 181.274 876.918 181.626 895.627 181.626C908.881 181.626 919.719 182.051 919.711 182.572C919.682 184.575 893.11 259.484 870.804 320.442C857.126 357.826 846.768 388.22 845.774 393.897C840.301 425.168 852.76 444.622 884.824 454.87C894.989 458.118 897.342 458.373 917.672 458.411C944.542 458.46 956.793 455.963 979.26 445.855C998.227 437.321 1014.2 426.206 1031.28 409.647C1044.95 396.401 1069.38 367.503 1068.29 365.876C1067.96 365.379 1064.03 362.608 1059.55 359.716L1051.42 354.458L1041 366.277C1027.39 381.709 1006.56 399.98 998.458 403.596C989.22 407.718 982.278 407.6 977.558 403.241C974.098 400.047 973.799 399.003 973.943 390.649C974.139 379.315 976.817 371.354 1016.55 264.009L1046.34 183.518H1079.18H1112.02L1117.1 169.644C1119.9 162.013 1122.21 155.627 1122.23 155.454C1122.26 155.281 1107.81 155.139 1090.12 155.139C1063.12 155.139 1057.96 154.849 1057.96 153.333C1057.96 151.75 1079.9 94.0771 1088.69 72.5519L1091.91 64.6752L1081.57 63.8705C1075.88 63.4265 1066.24 63.0885 1060.15 63.1187L1049.06 63.173L1031.55 78.8432ZM598.095 142.118C554.269 148.651 511.813 169.948 471.661 205.539C435.674 237.438 408.011 276.972 393.628 317.053C385.392 340.007 383.893 348.652 383.978 372.711C384.048 392.549 384.331 394.923 387.761 404.442C396.988 430.044 418.602 447.515 450.966 455.529C460.104 457.793 465.762 458.247 485.182 458.275C506.193 458.306 509.775 457.981 522.135 454.92C539.366 450.651 557.089 442.568 572.23 432.069C584.144 423.809 607.091 402.65 617.647 390.195C620.813 386.459 623.62 383.999 623.882 384.726C624.147 385.455 623.651 389.812 622.782 394.408C620.246 407.831 620.806 424.852 624.045 432.832C628.983 444.995 641.545 453.399 660.633 457.312C668.776 458.982 675.001 459.301 688.984 458.764C708.956 457.996 723.632 454.744 740.98 447.241C766.256 436.309 794.501 411.975 817.534 381.286L825.298 370.94L816.739 364.524L808.18 358.108L801.372 365.41C770.446 398.569 750.445 410.299 741.901 400.289C736.609 394.09 738.747 381.607 751.159 346.224C756.891 329.884 772.777 288.031 780.6 268.655C788.632 248.76 812.889 186.976 818.479 172.166C821.36 164.535 824.137 157.298 824.649 156.085C825.528 154.004 822.154 153.877 765.312 153.877H705.043L702.893 160.814C701.71 164.63 699.776 171.015 698.596 175.004C697.415 178.993 696.155 183.08 695.796 184.085C695.428 185.116 692.799 181.473 689.773 175.743C680.688 158.537 664.65 147.224 643.483 143.09C635.099 141.452 606.649 140.843 598.095 142.118ZM1326.89 150.162C1287.43 155.014 1164.97 166.49 1152.67 166.49C1150.75 166.49 1149.48 168.175 1147.81 172.942C1146.57 176.49 1145.55 180.112 1145.55 180.991C1145.55 182.065 1149.01 182.89 1156.06 183.499C1180.81 185.635 1189.95 190.505 1189.77 201.456C1189.66 208.403 1179.65 237.092 1150.72 313.431C1127.38 375.009 1124.1 384.813 1122.11 398.88C1118.67 423.298 1128.23 441.474 1149.72 451.37C1163.23 457.595 1175.72 459.531 1197.36 458.758C1237.16 457.335 1262.85 445.806 1297.54 413.793C1314.94 397.729 1335.96 373.951 1336.32 369.924C1336.4 368.934 1332.85 365.755 1328.43 362.861L1320.38 357.596L1312.78 365.784C1299.32 380.273 1279.74 397.402 1273.8 399.888C1265.4 403.402 1259.98 403.089 1256.37 398.883C1249.94 391.401 1252.47 382.876 1300.78 249.323C1319.9 196.481 1335.97 152.253 1336.49 151.04C1337.02 149.826 1336.92 148.904 1336.28 148.992C1335.63 149.081 1331.41 149.607 1326.89 150.162ZM1587.62 152.626C1495.52 164.303 1413.21 224.505 1378.26 305.757C1363.94 339.031 1362.02 376.721 1373.33 402.378C1392.94 446.855 1452.44 472.735 1524.15 467.98C1593.96 463.351 1640.22 438.537 1686.57 380.855L1690.16 376.387L1677.84 367.728C1670.99 362.912 1665.05 359.576 1664.46 360.214C1637.1 389.78 1623.17 401.808 1605.04 411.519C1590.62 419.238 1582.56 421.97 1568.67 423.84C1549.13 426.474 1529.06 421.918 1516.91 412.092C1500.76 399.026 1493.48 374.043 1497.2 344.516C1505.53 278.461 1553.44 203.107 1596.77 187.906C1606.68 184.428 1621.56 183.215 1627.32 185.413C1632.38 187.344 1636.89 192.337 1636.88 195.986C1636.88 197.452 1633.21 204.251 1628.74 211.092C1620 224.44 1616.94 233.604 1618.09 242.98C1620.27 260.778 1640.36 275.412 1664.95 277.105C1690.2 278.845 1712.22 268.397 1722.04 250.01C1726.33 241.968 1726.54 240.938 1726.54 227.059C1726.54 212.988 1726.38 212.227 1721.63 203.068C1709.4 179.475 1684.78 162.598 1651.59 155.053C1638.64 152.109 1602.51 150.738 1587.62 152.626ZM1952.36 157.235C1890.74 164.084 1837.47 187.889 1792.51 228.662C1744.77 271.948 1717.6 323.564 1717.67 370.819C1717.71 398.886 1727.12 421.329 1746.3 439.078C1771.97 462.836 1808.29 474.902 1858.7 476.421C1907.73 477.897 1950.3 468.446 1993.16 446.565C2049.18 417.965 2101.42 359.72 2117.77 307.635C2125.16 284.111 2126.05 256.422 2120.04 237.157C2106.66 194.254 2063.16 164.545 2003.72 157.729C1992.94 156.493 1961.74 156.192 1952.36 157.235ZM654.051 181.551C661.1 184.866 667.445 191.812 669.369 198.321C678.551 229.387 638.088 326.301 596.637 372.518C579.15 392.017 563.584 401.103 546.004 402.075C537.424 402.551 534.709 402.201 530.095 400.032C518.009 394.35 514.094 386.331 513.993 367.035C513.867 343.275 523.553 312.613 542.479 276.853C569.359 226.065 598.983 191.533 623.72 182.159C633.885 178.307 646.609 178.053 654.051 181.551ZM1977.06 185.557C1985.32 187.472 1994.32 195.028 1998.24 203.335C2010.98 230.31 1991.78 308.708 1955.83 376.495C1934.62 416.497 1913.45 440.181 1892.56 447.308C1884.52 450.051 1867.71 450.025 1860.66 447.257C1847.1 441.932 1840.72 431.115 1839.76 411.811C1837.08 358.225 1881.86 245.645 1922.1 204.796C1938.66 187.976 1958.13 181.163 1977.06 185.557ZM0 516.295V548.256L373.296 549.123C578.608 549.6 860.649 550.558 1000.05 551.253L1253.51 552.517L1323.05 568.157C1396.51 584.679 1429.2 592.104 1600.62 631.203C1659.34 644.595 1709.84 656.084 1712.85 656.735C1718.99 658.063 1713.5 659.271 1785.39 640.763C1832.16 628.722 1891.05 613.628 1945.52 599.725C1962.83 595.305 2007.79 583.976 2045.43 574.552C2083.07 565.126 2115.25 556.876 2116.94 556.218L2120.02 555.022V521.57C2120.02 503.173 2119.64 488.119 2119.17 488.119C2118.7 488.119 2104.69 491.571 2088.03 495.792C2071.38 500.012 2023.26 512.172 1981.1 522.815C1938.95 533.459 1877.67 548.982 1844.92 557.31C1812.18 565.639 1770.4 576.224 1752.08 580.832L1718.77 589.208L1643.95 572.152C1602.81 562.77 1535.27 547.414 1493.87 538.027C1452.47 528.641 1382.34 512.719 1338.03 502.648L1257.47 484.335H628.733H0V516.295ZM0 611.519V644.107L272.017 644.943C421.627 645.403 703.856 646.138 899.195 646.575L1254.36 647.37L1298.84 657.366C1394.18 678.789 1630.47 733.32 1677.07 744.654L1726.15 756.591L1740.03 752.971C1789.78 739.996 1852.95 723.379 1898.3 711.34C1927.28 703.646 1988.49 687.433 2034.33 675.314C2080.17 663.193 2118.2 652.975 2118.85 652.607C2119.49 652.24 2120.02 636.292 2120.02 617.169V582.401L2116.26 583.105C2114.19 583.492 2046.59 601.218 1966.05 622.497C1885.5 643.776 1798.31 666.813 1772.28 673.689L1724.95 686.192L1545.08 644.701C1446.16 621.879 1341.2 597.746 1311.84 591.068L1258.46 578.928L629.231 578.931L0 578.932V611.519ZM464.858 673.591C451.887 675.596 438.551 683.935 431.544 694.423C430.201 696.431 429.899 694.909 429.833 685.827L429.752 674.79H384.55H339.347L339.727 692.764L340.106 710.737H347.482H354.859L356.51 704.745C358.096 698.988 361.818 693.71 364.293 693.71C364.943 693.71 365.31 707.758 365.107 724.927L364.742 756.143L357.034 756.517L349.327 756.891L345.759 747.688C341.787 737.445 323.961 690.121 320.554 680.781L318.37 674.79L308.708 674.8L299.047 674.81L284.172 714.216C275.99 735.888 268.798 754.119 268.189 754.728C267.581 755.336 263.621 749.475 259.391 741.703L251.701 727.57L256.481 722.694C262.361 716.697 264.678 709.28 263.725 699.505C262.792 689.931 257.765 683.071 248.438 678.643C241.763 675.475 241.068 675.415 207.049 675.027L172.448 674.633V682.28C172.448 689.813 172.504 689.926 176.281 689.926C183.22 689.926 183.399 690.735 183.378 722.026C183.369 738.016 182.988 752.376 182.535 753.936C182.066 755.547 180.644 756.774 179.245 756.774C176.352 756.774 176.909 758.04 158.969 710.737L145.574 675.421H135.618H125.663L110.596 715.152C102.307 737.003 95.0642 755.337 94.4976 755.895C93.9323 756.452 93.7626 752.699 94.1198 747.554C94.8521 737.046 93.1878 730.851 88.154 725.336L84.8432 721.711L88.4646 715.279C91.2279 710.372 92.06 707.118 91.9738 701.559C91.8356 692.515 90.0221 687.947 84.4668 682.639C77.339 675.83 70.8338 674.79 35.3355 674.79H4.10591V682.279V689.766L8.55398 690.162L13.0021 690.556L13.3675 723.665L13.7315 756.774H8.91941H4.10591V765.1V773.426L37.9852 772.983C71.1541 772.549 72.0122 772.472 78.9759 769.295L86.0887 766.051L86.4993 769.295L86.9085 772.54L105.727 772.891L124.546 773.242V765.008V756.774H120.44C115.774 756.774 115.529 755.947 118.349 749.726C120.292 745.44 120.592 745.295 126.759 745.667C132.992 746.043 133.197 746.189 134.864 751.414L136.575 756.774H132.613H128.652V764.988V773.201L179.634 772.871C224.069 772.583 230.569 772.297 230.254 770.648C229.979 769.213 230.351 769.295 231.791 770.988C233.528 773.026 236.453 773.189 265.625 772.88L297.56 772.54L297.432 764.972C297.306 757.432 297.29 757.404 292.98 757.005C289.233 756.659 288.78 756.238 289.586 753.852C292.386 745.562 292.544 745.422 298.965 745.422C305.474 745.422 306.679 746.423 308.465 753.306C309.294 756.507 309.045 756.774 305.232 756.774H301.1V764.986V773.199L357.557 772.869L414.013 772.54V764.972V757.405L409.223 756.774L404.432 756.143L404.067 724.927C403.844 705.932 404.207 693.71 404.994 693.71C407.595 693.71 411.845 700.34 412.73 705.78C413.62 711.25 413.747 711.368 418.787 711.368H423.933L424.524 725.557C425.056 738.372 425.557 740.635 429.699 748.911C439.297 768.097 459.728 777.749 483.471 774.316C506.875 770.932 521.868 756.118 525.658 732.633C530.489 702.695 512.519 677.418 483.67 673.574C473.171 672.176 474.011 672.176 464.858 673.591ZM677.785 673.634C664.508 675.739 650.782 684.293 644.973 694.084L642.575 698.124L642.181 686.457L641.788 674.79H597.358H552.93V693.079V711.368H560.965H569L569.916 705.011C570.742 699.272 574.341 693.707 577.223 693.711C578.523 693.713 579.535 750.521 578.299 754.11C577.597 756.148 576.263 756.774 572.617 756.774H567.855L568.261 764.657L568.669 772.54L597.752 772.881L626.836 773.221V765.077V756.934L622.388 756.538L617.94 756.143L617.574 724.927C617.338 704.847 617.693 693.71 618.568 693.71C620.855 693.71 624.125 699.384 625.198 705.213C626.189 710.598 626.354 710.747 631.811 711.117L637.41 711.496L636.787 719.946C635.506 737.354 642.996 756.096 654.649 764.643C668.081 774.497 689.396 777.372 707.423 771.762C723.57 766.737 736.654 750.866 738.786 733.722C741.851 709.081 733.211 689.043 715.366 679.409C705.304 673.977 690.235 671.661 677.785 673.634ZM874.929 673.54C856.681 677.038 842.156 689.185 837.007 705.258L835.356 710.41L832.37 702.863C828.308 692.596 820.416 684.672 809.17 679.567L800.037 675.421L768.182 675.003L736.327 674.587V682.176V689.766L740.775 690.162L745.223 690.556V723.35V756.143L740.775 756.538L736.327 756.934V765.052V773.171L761.305 773.161C775.043 773.156 790.201 772.565 794.99 771.85C814.786 768.89 827.198 758.732 834.219 739.747C834.993 737.652 835.437 738.078 836.837 742.269C839.747 750.975 843.961 757.269 850.86 763.216C860.598 771.611 867.917 773.803 886.193 773.798C899.866 773.794 901.957 773.474 908.971 770.301C928.996 761.247 939.932 739.098 936.301 714.955C933.615 697.084 921.42 681.7 905.623 676.253C897.006 673.282 882.822 672.028 874.929 673.54ZM1245.3 675.425C1236.17 679.998 1235.25 691.067 1241.57 720.405L1245.89 740.459L1242.22 743.982C1237.8 748.238 1235.53 754.794 1236.71 759.927C1238.97 769.772 1244.89 774.432 1255.13 774.432C1259.93 774.432 1261.68 773.656 1266.15 769.536C1271.01 765.062 1271.46 764.054 1271.46 757.869C1271.45 751.427 1270.5 749.199 1264.41 741.477C1263.13 739.854 1263.7 735.226 1267.13 719.405C1269.51 708.394 1271.47 696.349 1271.47 692.639C1271.46 680.264 1265.27 673.471 1254.08 673.579C1251.22 673.607 1247.27 674.437 1245.3 675.425ZM964.538 675.637C964.182 676.212 963.962 679.52 964.048 682.989C964.202 689.201 964.278 689.305 968.995 689.926L973.786 690.556V723.35V756.143L969.455 756.531C965.178 756.913 965.119 757.011 964.665 764.522C964.412 768.706 964.461 772.362 964.776 772.65C965.979 773.75 1013.92 773.088 1022.37 771.854C1040.44 769.219 1054.55 759.176 1060.91 744.416C1065.28 734.287 1065.25 712.828 1060.85 702.353C1056.67 692.388 1048.73 684.559 1037.73 679.567L1028.6 675.421L996.892 675.006C979.453 674.776 964.894 675.06 964.538 675.637ZM1061.98 675.08C1061.94 675.268 1061.79 678.659 1061.64 682.617L1061.38 689.812L1066.17 690.184L1070.96 690.556V723.35V756.143L1066.17 756.774L1061.38 757.405L1061.56 764.972L1061.74 772.54H1104.67H1147.6L1148.01 764.657L1148.42 756.774H1144.25C1139.64 756.774 1139.23 755.615 1141.58 749.394C1142.96 745.747 1143.57 745.422 1149.14 745.422C1155.47 745.422 1155.63 745.565 1158.46 753.936C1159.31 756.461 1158.95 756.774 1155.16 756.774H1150.89L1151.3 764.657L1151.71 772.54H1179.08H1206.45V764.972C1206.45 758.082 1206.18 757.368 1203.37 757.001C1201.68 756.779 1199.67 755.532 1198.91 754.229C1198.16 752.925 1192.25 737.782 1185.79 720.576C1179.33 703.372 1172.81 686.032 1171.3 682.043L1168.56 674.79H1158.76H1148.96L1145.75 683.304C1124.63 739.322 1118.99 753.857 1117.83 755.198C1117.08 756.065 1115 756.774 1113.2 756.774H1109.92L1110.28 723.665L1110.65 690.556L1115.44 689.926L1120.23 689.295V682.358V675.421L1091.15 675.08C1075.15 674.894 1062.03 674.894 1061.98 675.08ZM494.315 682.045C503.496 685.789 510.02 691.81 514.946 701.089C519.184 709.072 519.398 710.173 519.398 723.981C519.398 737.213 519.072 739.095 515.683 745.422C510.229 755.606 504.581 761.216 495.762 765.207C488.812 768.353 486.44 768.753 474.917 768.726C464.67 768.701 460.583 768.133 455.635 766.048C442.76 760.624 433.75 748.611 431.103 733.338C426.788 708.44 439.534 685.859 461.082 680.229C469.67 677.986 486.63 678.912 494.315 682.045ZM706.414 681.722C714.047 684.175 724.019 692.848 728.066 700.552C732.829 709.62 734.355 720.148 732.555 731.526C729.885 748.408 722.029 759.411 708.154 765.705C698.659 770.011 678.707 770.072 668.579 765.825C659.299 761.934 652.454 755.462 647.835 746.212C644.593 739.719 643.902 736.472 643.506 725.872C643.116 715.399 643.527 712.051 645.93 706.14C651.518 692.39 661.033 683.761 674.469 680.258C682.344 678.205 697.657 678.907 706.414 681.722ZM897.781 679.944C918.695 684.077 931.73 702.721 930.333 726.503C929.21 745.618 920.915 758.608 905.332 765.654C899.558 768.263 896.514 768.739 885.508 768.746C874.038 768.755 871.591 768.341 864.73 765.237C855.579 761.095 849.5 755.133 844.589 745.481C841.397 739.207 841.03 736.976 841.029 723.857C841.028 709.63 841.159 708.993 845.818 700.571C855.594 682.899 874.587 675.36 897.781 679.944ZM1261.17 681.412C1266.76 685.89 1266.84 691.137 1261.71 715.892C1257.32 737.088 1255.51 741.419 1252.34 738.338C1250.26 736.31 1242.2 692.006 1243.23 688.228C1244.54 683.412 1250.05 678.574 1254.22 678.574C1256.09 678.574 1259.22 679.852 1261.17 681.412ZM74.5907 683.062C89.3337 690.052 89.7621 713.228 75.2587 719.145C73.0086 720.062 71.191 721.1 71.2184 721.45C71.2458 721.801 73.864 723.224 77.0351 724.611C92.2571 731.27 92.8525 754.962 78.0123 763.483C73.5177 766.063 71.2978 766.259 42.0856 766.635C11.3816 767.03 10.9491 766.998 10.9491 764.428C10.9491 762.686 11.8319 761.819 13.6084 761.819C15.0714 761.819 17.227 760.558 18.3986 759.015C20.1942 756.654 20.5268 751.136 20.509 724.015C20.4885 689.697 19.8493 685.883 13.9943 685.108C11.9906 684.843 10.9491 683.83 10.9491 682.145C10.9491 679.639 11.5623 679.593 40.0326 680.026C66.1435 680.421 69.676 680.731 74.5907 683.062ZM154.02 715.467C169.047 755.378 171.915 761.819 174.652 761.819C175.699 761.819 176.554 762.056 176.554 762.347C176.554 762.637 176.928 763.772 177.385 764.869C178.121 766.637 175.702 766.864 156.071 766.864C135.934 766.864 133.966 766.669 134.376 764.713C134.623 763.528 136.304 762.239 138.111 761.846C143.74 760.621 144.231 758.134 140.603 749.206L137.272 741.008H125.852H114.432L111.82 749.176C108.956 758.144 109.602 760.653 115.087 761.846C116.894 762.239 118.575 763.528 118.822 764.713C119.221 766.62 117.784 766.864 106.169 766.864C93.9802 766.864 93.0674 766.689 93.0674 764.342C93.0674 762.954 93.8954 761.819 94.9082 761.819C99.734 761.819 101.257 758.462 122.802 700.331L130.4 679.835H135.502H140.603L154.02 715.467ZM242.933 682.212C252.332 685.818 257.5 693.209 257.597 703.182C257.691 712.867 251.182 722.212 242.599 724.708C242.19 724.827 259.503 755.039 262.241 758.981C266.019 764.425 273.61 760.904 276.369 752.428C277.059 750.309 281.111 739.494 285.375 728.395C289.638 717.296 295.437 701.971 298.262 694.34L303.397 680.466H308.543H313.689L323.925 707.584C329.556 722.499 336.081 739.81 338.428 746.053C341.173 753.356 344.063 758.597 346.532 760.748C348.644 762.587 350.371 764.716 350.371 765.478C350.371 766.428 343.445 766.864 328.373 766.864C308.161 766.864 306.411 766.685 306.828 764.657C307.098 763.348 308.761 762.292 310.919 762.061C316.14 761.503 316.599 758.853 313.172 749.047L310.141 740.377H298.994H287.848L285.446 747.687C282.388 756.994 282.923 760.854 287.407 761.823C289.285 762.229 291.023 763.528 291.271 764.713C291.683 766.683 289.418 766.864 264.448 766.864H237.175L230.16 753.081C226.301 745.499 222.141 736.986 220.915 734.162C219.688 731.336 217.828 729.026 216.78 729.026C215.269 729.026 214.876 731.901 214.876 742.983C214.876 758.368 216.013 761.819 221.083 761.819C223.544 761.819 224.457 762.502 224.457 764.342C224.457 766.762 223.544 766.864 201.874 766.864C181.101 766.864 179.292 766.684 179.292 764.611C179.292 763.183 180.411 762.278 182.345 762.145C188.528 761.715 188.872 759.679 188.872 723.524C188.872 693.629 188.597 689.213 186.607 687.187C185.361 685.919 183.206 684.881 181.817 684.881C180.165 684.881 179.292 683.966 179.292 682.234C179.292 679.612 179.56 679.593 209.059 680.113C228.528 680.455 240.248 681.181 242.933 682.212ZM422.909 692.448C422.909 701.919 422.468 705.061 421.139 705.061C420.166 705.061 418.669 702.642 417.811 699.686C415.804 692.775 410.976 688.641 403.882 687.764C398.703 687.124 398.263 687.301 398.123 690.075C398.041 691.727 397.804 706.417 397.597 722.719C397.175 756.185 397.968 760.939 404.09 761.587C406.75 761.87 407.854 762.702 407.854 764.425C407.854 766.741 406.676 766.864 384.587 766.864C362.499 766.864 361.32 766.741 361.32 764.425C361.32 762.708 362.425 761.868 365.053 761.587C371.807 760.866 372.284 758.073 371.919 721.458L371.585 688.034L366.33 688.188C358.801 688.408 354.177 692.101 351.758 699.826C348.34 710.733 346.265 708.184 346.265 693.079V679.835H384.587H422.909V692.448ZM635.732 693.079C635.732 703.328 635.356 705.692 633.723 705.692C632.464 705.692 631.299 703.766 630.607 700.534C629.148 693.736 623.371 688.673 616.04 687.766L610.412 687.071V721.642C610.412 759.289 610.891 761.819 618.018 761.819C620.449 761.819 621.361 762.508 621.361 764.342C621.361 766.765 620.449 766.864 598.241 766.864C579.669 766.864 574.976 766.516 574.384 765.096C573.47 762.899 574.561 761.819 577.695 761.819C579.021 761.819 581.074 760.928 582.258 759.838C584.11 758.13 584.408 752.956 584.408 722.464V687.073L579.307 687.836C571.913 688.942 567.607 692.447 565.046 699.445C561.266 709.778 559.773 707.999 559.773 693.165V679.795L597.752 680.131L635.732 680.466V693.079ZM803.709 683.315C813.859 687.491 819.09 691.868 824.087 700.358C828.64 708.097 828.71 708.45 828.696 723.981C828.684 737.961 828.328 740.361 825.557 745.164C820.762 753.477 813.676 759.954 805.774 763.243C799.097 766.023 796.624 766.258 770.082 766.64C743.092 767.027 741.588 766.926 742.038 764.749C742.3 763.485 743.887 762.27 745.567 762.049C752.224 761.174 752.751 758.515 752.742 725.907C752.734 691.35 751.895 686.426 745.829 685.308C741.949 684.593 740.685 682.583 742.828 680.538C743.393 680.001 755.864 679.805 770.543 680.104C793.966 680.582 798.024 680.976 803.709 683.315ZM1022.2 681.159C1044.36 684.473 1056.46 697.926 1057.7 720.642C1058.7 739.009 1052.77 752.091 1039.8 760.134C1030.8 765.712 1023.11 766.864 994.831 766.864C972.136 766.864 970.2 766.689 970.621 764.671C970.873 763.465 972.305 762.282 973.801 762.043C979.65 761.105 979.945 759.244 979.945 723.199C979.945 686.464 979.657 684.881 973.004 684.881C971.277 684.881 970.364 684.009 970.364 682.358C970.364 679.941 971.273 679.835 991.92 679.846C1003.78 679.851 1017.4 680.441 1022.2 681.159ZM1114.07 682.358C1114.07 683.969 1113.16 684.881 1111.55 684.881C1110.16 684.881 1107.85 686.078 1106.41 687.541C1103.97 690.028 1103.82 692.392 1104 724.143C1104.21 759.734 1104.47 761.278 1110.39 762.059C1112.02 762.273 1113.56 763.444 1113.82 764.657C1114.24 766.689 1112.42 766.864 1090.9 766.864C1072.47 766.864 1067.54 766.514 1067.54 765.2C1067.54 764.285 1069.51 762.724 1071.92 761.731C1074.61 760.621 1076.6 758.716 1077.09 756.774C1077.53 755.04 1077.87 739.349 1077.85 721.907C1077.8 692.524 1077.61 689.998 1075.19 687.537C1073.76 686.076 1071.45 684.881 1070.06 684.881C1068.45 684.881 1067.54 683.969 1067.54 682.358C1067.54 679.934 1068.45 679.835 1090.8 679.835C1113.16 679.835 1114.07 679.934 1114.07 682.358ZM1175.33 710.737C1193.78 759.575 1193.88 759.802 1197.24 761.172C1198.92 761.857 1200.3 763.419 1200.3 764.641C1200.3 766.669 1198.43 766.864 1179.08 766.864C1162.75 766.864 1157.87 766.492 1157.87 765.249C1157.87 764.361 1159.72 762.991 1161.97 762.205C1166.99 760.461 1167.19 757.955 1163.16 747.76L1160.24 740.377H1149.11H1137.99L1135.39 748.742C1132.55 757.871 1133.28 760.876 1138.5 761.592C1140.34 761.844 1141.44 762.905 1141.44 764.43C1141.44 766.655 1140.38 766.864 1129.13 766.864C1118.27 766.864 1116.81 766.6 1116.81 764.641C1116.81 763.419 1118.18 761.857 1119.86 761.172C1123.35 759.75 1123.41 759.606 1140.28 715.152C1146.99 697.462 1152.77 682.245 1153.11 681.335C1153.52 680.269 1155.54 679.822 1158.81 680.074L1163.89 680.466L1175.33 710.737ZM466.957 688.719C460.154 694.56 456.222 713.122 457.791 731.986C459.523 752.797 464.59 761.819 474.548 761.819C481.569 761.819 484.851 759.427 488.746 751.467C491.764 745.299 492.012 743.21 492.012 723.981C492.012 704.751 491.764 702.662 488.746 696.495C486.949 692.823 484.198 688.991 482.631 687.981C478.457 685.285 470.52 685.66 466.957 688.719ZM679.82 688.678C673.151 693.514 671.317 700.989 671.317 723.35C671.317 745.367 672.6 751.716 678.317 757.979C681.144 761.073 682.882 761.819 687.268 761.819C694.496 761.819 697.463 760.176 700.659 754.402C706.541 743.777 707.731 711.926 702.746 698.529C699.552 689.938 695.238 686.142 688.675 686.142C685.382 686.142 681.972 687.119 679.82 688.678ZM877.795 687.981C876.228 688.991 873.511 692.823 871.758 696.495C868.9 702.478 868.562 705.129 868.485 722.089C868.388 743.76 870.167 752.352 875.929 758.037C881.356 763.391 889.643 763.409 895.047 758.078C900.199 752.993 901.966 746.268 902.881 728.247C904.266 700.966 898.304 686.142 885.948 686.142C883.03 686.142 879.361 686.969 877.795 687.981ZM46.5337 703.169C46.5337 713.337 47.0442 718.935 47.9707 718.935C51.6565 718.935 57.3254 714.859 58.7036 711.218C60.8236 705.614 60.5937 696.772 58.2177 692.539C56.1347 688.827 53.6232 687.403 49.1587 687.403C46.7116 687.403 46.5337 688.468 46.5337 703.169ZM214.876 704.431V721.458H218.388C227.511 721.458 231.829 714.966 231.059 702.409C230.422 692.022 226.842 687.403 219.428 687.403H214.876V704.431ZM779.075 722.898C779.401 754.678 779.683 758.534 781.76 759.741C783.496 760.75 785.331 760.542 789.029 758.916C792.808 757.256 794.847 755.03 797.657 749.505C801.081 742.771 801.337 741.089 801.337 725.242C801.337 712.045 800.779 706.737 798.853 701.652C795.844 693.7 788.746 687.403 782.792 687.403H778.712L779.075 722.898ZM1006.86 688.244C1005.32 689.66 1005.8 755.421 1007.37 758.119C1010.97 764.329 1023.19 757.426 1027.11 746.961C1032.05 733.788 1031.02 708.161 1025.12 697.509C1023.65 694.856 1020.81 691.499 1018.8 690.046C1015.29 687.496 1008.74 686.509 1006.86 688.244ZM478.489 692.152C479.326 692.661 481.146 695.065 482.532 697.493C484.539 701.002 485.17 705.551 485.608 719.663C486.245 740.222 484.588 750.026 479.77 754.197C470.395 762.314 463.967 749.488 463.997 722.719C464.023 700.212 470.231 687.117 478.489 692.152ZM692.808 693.394C696.708 697.549 698.301 704.439 699.004 720.197C699.988 742.2 695.784 756.774 688.451 756.774C684.728 756.774 680.492 751.54 678.754 744.792C676.523 736.134 676.452 710.941 678.633 702.993C681.486 692.607 687.958 688.224 692.808 693.394ZM890.804 694.417C895.118 699.471 896.816 710.104 896.221 728.319C895.656 745.585 893.449 752.944 887.904 756.05C884.57 757.918 881.344 755.86 878.026 749.75C875.865 745.767 875.226 741.461 874.783 727.864C874.176 709.343 875.751 699.644 880.213 694.417C883.717 690.312 887.3 690.312 890.804 694.417ZM224.436 704.012C224.447 707.945 224.084 712.056 223.629 713.149C221.877 717.359 221.053 713.724 221.489 703.702C222.003 691.89 224.4 692.143 224.436 704.012ZM789.6 697.028C791.157 698.852 793.142 702.684 794.008 705.542C796.208 712.79 796.147 737.307 793.914 743.531C792.125 748.518 787.55 754.252 785.36 754.252C784.738 754.252 784.229 740.63 784.229 723.981C784.229 706.22 784.754 693.71 785.498 693.71C786.197 693.71 788.042 695.203 789.6 697.028ZM1019.54 700.586C1025.81 712.143 1024.92 743.012 1018.09 751.021C1016.57 752.799 1014.76 754.252 1014.06 754.252C1013.32 754.252 1012.79 741.7 1012.79 723.876C1012.79 690.725 1013.28 689.047 1019.54 700.586ZM53.6123 707.233C52.4298 710.217 52.2299 709.521 52.2573 702.539C52.2888 694.785 52.3641 694.595 53.6451 699.035C54.5471 702.163 54.5361 704.898 53.6123 707.233ZM295.054 721.146C293.11 726.526 291.52 731.35 291.52 731.867C291.52 732.386 294.907 732.81 299.047 732.81C303.187 732.81 306.575 732.555 306.575 732.245C306.575 730.937 299.569 711.368 299.101 711.368C298.819 711.368 296.997 715.768 295.054 721.146ZM121.568 722.404L118.1 732.179L125.583 732.561C129.7 732.772 133.3 732.73 133.585 732.468C134.406 731.712 127.145 712.629 126.036 712.629C125.486 712.629 123.476 717.027 121.568 722.404ZM1145.89 719.133C1144.41 722.84 1142.79 727.433 1142.29 729.341C1141.39 732.806 1141.4 732.81 1148.95 732.81C1153.1 732.81 1156.5 732.352 1156.5 731.793C1156.5 730.008 1150.71 714.562 1149.62 713.458C1149.05 712.872 1147.37 715.426 1145.89 719.133ZM46.8375 742.585L47.218 759.927L51.5073 760.312C59.9409 761.068 64.9186 749.384 61.5983 736.629C59.7794 729.641 55.1944 725.242 49.7322 725.242H46.457L46.8375 742.585ZM55.7528 739.559C56.5603 746.16 55.2177 754.252 53.3153 754.252C52.5803 754.252 52.0082 749.176 52.0082 742.648C52.0082 734.126 52.4133 731.417 53.5315 732.448C54.3691 733.22 55.3696 736.419 55.7528 739.559ZM1259.02 745.994C1266.9 749.747 1268.01 761.699 1260.96 766.81C1253.28 772.378 1244.34 767.836 1243.1 757.739C1242.45 752.425 1242.79 751.474 1246.55 748.006C1251.23 743.697 1253.45 743.339 1259.02 745.994ZM223.711 753.936C224.27 755.643 224.058 756.774 223.18 756.774C222.376 756.774 221.719 755.969 221.719 754.986C221.719 754.002 221.321 752.156 220.834 750.886C220.229 749.31 220.399 748.977 221.363 749.837C222.144 750.531 223.199 752.376 223.711 753.936Z" fill="#16350B"></path>
</svg>