<svg width="1109" height="301" viewBox="0 0 1109 301" fill="none" xmlns="http://www.w3.org/2000/svg">
<path d="M658.461 164V45H716.601C731.561 45 742.781 47.8333 750.261 53.5C757.855 59.1667 761.651 66.6467 761.651 75.94C761.651 82.1733 760.121 87.6133 757.061 92.26C754.001 96.7933 749.808 100.307 744.481 102.8C739.155 105.293 733.035 106.54 726.121 106.54L729.351 99.57C736.831 99.57 743.461 100.817 749.241 103.31C755.021 105.69 759.498 109.26 762.671 114.02C765.958 118.78 767.601 124.617 767.601 131.53C767.601 141.73 763.578 149.72 755.531 155.5C747.485 161.167 735.641 164 720.001 164H658.461ZM685.831 143.26H717.961C725.101 143.26 730.485 142.127 734.111 139.86C737.851 137.48 739.721 133.74 739.721 128.64C739.721 123.653 737.851 119.97 734.111 117.59C730.485 115.097 725.101 113.85 717.961 113.85H683.791V93.79H713.201C719.888 93.79 724.988 92.6567 728.501 90.39C732.128 88.01 733.941 84.44 733.941 79.68C733.941 75.0333 732.128 71.5767 728.501 69.31C724.988 66.93 719.888 65.74 713.201 65.74H685.831V143.26ZM826.871 165.36C816.445 165.36 807.265 163.32 799.331 159.24C791.511 155.16 785.448 149.607 781.141 142.58C776.835 135.44 774.681 127.337 774.681 118.27C774.681 109.09 776.778 100.987 780.971 93.96C785.278 86.82 791.115 81.2667 798.481 77.3C805.848 73.22 814.178 71.18 823.471 71.18C832.425 71.18 840.471 73.1067 847.611 76.96C854.865 80.7 860.588 86.14 864.781 93.28C868.975 100.307 871.071 108.75 871.071 118.61C871.071 119.63 871.015 120.82 870.901 122.18C870.788 123.427 870.675 124.617 870.561 125.75H796.271V110.28H856.621L846.421 114.87C846.421 110.11 845.458 105.973 843.531 102.46C841.605 98.9467 838.941 96.2267 835.541 94.3C832.141 92.26 828.175 91.24 823.641 91.24C819.108 91.24 815.085 92.26 811.571 94.3C808.171 96.2267 805.508 99.0033 803.581 102.63C801.655 106.143 800.691 110.337 800.691 115.21V119.29C800.691 124.277 801.768 128.697 803.921 132.55C806.188 136.29 809.305 139.18 813.271 141.22C817.351 143.147 822.111 144.11 827.551 144.11C832.425 144.11 836.675 143.373 840.301 141.9C844.041 140.427 847.441 138.217 850.501 135.27L864.611 150.57C860.418 155.33 855.148 159.013 848.801 161.62C842.455 164.113 835.145 165.36 826.871 165.36ZM927.827 165.36C917.967 165.36 909.184 163.377 901.477 159.41C893.771 155.33 887.707 149.72 883.287 142.58C878.981 135.44 876.827 127.337 876.827 118.27C876.827 109.09 878.981 100.987 883.287 93.96C887.707 86.82 893.771 81.2667 901.477 77.3C909.184 73.22 917.967 71.18 927.827 71.18C937.461 71.18 945.848 73.22 952.988 77.3C960.128 81.2667 965.398 86.99 968.797 94.47L948.228 105.52C945.848 101.213 942.844 98.04 939.218 96C935.704 93.96 931.851 92.94 927.658 92.94C923.124 92.94 919.044 93.96 915.417 96C911.791 98.04 908.901 100.93 906.747 104.67C904.707 108.41 903.687 112.943 903.687 118.27C903.687 123.597 904.707 128.13 906.747 131.87C908.901 135.61 911.791 138.5 915.417 140.54C919.044 142.58 923.124 143.6 927.658 143.6C931.851 143.6 935.704 142.637 939.218 140.71C942.844 138.67 945.848 135.44 948.228 131.02L968.797 142.24C965.398 149.607 960.128 155.33 952.988 159.41C945.848 163.377 937.461 165.36 927.827 165.36ZM1035.07 164V146.15L1033.37 142.24V110.28C1033.37 104.613 1031.61 100.193 1028.1 97.02C1024.7 93.8467 1019.43 92.26 1012.29 92.26C1007.41 92.26 1002.6 93.0533 997.837 94.64C993.19 96.1133 989.224 98.1533 985.937 100.76L976.417 82.23C981.404 78.7167 987.41 75.9967 994.437 74.07C1001.46 72.1433 1008.6 71.18 1015.86 71.18C1029.8 71.18 1040.62 74.4667 1048.33 81.04C1056.03 87.6133 1059.89 97.87 1059.89 111.81V164H1035.07ZM1007.19 165.36C1000.05 165.36 993.927 164.17 988.827 161.79C983.727 159.297 979.817 155.953 977.097 151.76C974.377 147.567 973.017 142.863 973.017 137.65C973.017 132.21 974.32 127.45 976.927 123.37C979.647 119.29 983.897 116.117 989.677 113.85C995.457 111.47 1002.99 110.28 1012.29 110.28H1036.6V125.75H1015.18C1008.94 125.75 1004.64 126.77 1002.26 128.81C999.99 130.85 998.857 133.4 998.857 136.46C998.857 139.86 1000.16 142.58 1002.77 144.62C1005.49 146.547 1009.17 147.51 1013.82 147.51C1018.24 147.51 1022.2 146.49 1025.72 144.45C1029.23 142.297 1031.78 139.18 1033.37 135.1L1037.45 147.34C1035.52 153.233 1032.01 157.71 1026.91 160.77C1021.81 163.83 1015.23 165.36 1007.19 165.36Z" fill="#FFFFFF"></path>
<path d="M1080.07 65.32V45.4H1082.9L1092.5 60.136H1091.06L1100.47 45.4H1103.3L1103.35 65.32H1100.04L1099.99 50.296H1100.66L1092.5 62.968H1090.92L1082.52 50.296H1083.38V65.32H1080.07ZM1066.44 65.32V48.232H1059.19V45.4H1077.14V48.232H1069.9V65.32H1066.44Z" fill="#FFFFFF"></path>
<path d="M119.895 164V45H209.825V67.1H147.435V164H119.895ZM145.395 120.65V98.55H202.515V120.65H145.395ZM219.839 164V72.54H245.169V98.38L241.599 90.9C244.319 84.44 248.682 79.5667 254.689 76.28C260.695 72.88 268.005 71.18 276.619 71.18V95.66C275.485 95.5467 274.465 95.49 273.559 95.49C272.652 95.3767 271.689 95.32 270.669 95.32C263.415 95.32 257.522 97.4167 252.989 101.61C248.569 105.69 246.359 112.093 246.359 120.82V164H219.839ZM326.542 165.36C318.948 165.36 312.148 163.887 306.142 160.94C300.248 157.993 295.658 153.517 292.372 147.51C289.085 141.39 287.442 133.627 287.442 124.22V72.54H313.962V120.31C313.962 127.903 315.548 133.513 318.722 137.14C322.008 140.653 326.598 142.41 332.492 142.41C336.572 142.41 340.198 141.56 343.372 139.86C346.545 138.047 349.038 135.327 350.852 131.7C352.665 127.96 353.572 123.313 353.572 117.76V72.54H380.092V164H354.932V138.84L359.522 146.15C356.462 152.497 351.928 157.313 345.922 160.6C340.028 163.773 333.568 165.36 326.542 165.36ZM436.961 165.36C426.194 165.36 417.807 162.64 411.801 157.2C405.794 151.647 402.791 143.43 402.791 132.55V52.31H429.311V132.21C429.311 136.063 430.331 139.067 432.371 141.22C434.411 143.26 437.187 144.28 440.701 144.28C444.894 144.28 448.464 143.147 451.411 140.88L458.551 159.58C455.831 161.507 452.544 162.98 448.691 164C444.951 164.907 441.041 165.36 436.961 165.36ZM388.681 92.94V72.54H452.091V92.94H388.681ZM521.449 164V146.15L519.749 142.24V110.28C519.749 104.613 517.993 100.193 514.479 97.02C511.079 93.8467 505.809 92.26 498.669 92.26C493.796 92.26 488.979 93.0533 484.219 94.64C479.573 96.1133 475.606 98.1533 472.319 100.76L462.799 82.23C467.786 78.7167 473.793 75.9967 480.819 74.07C487.846 72.1433 494.986 71.18 502.239 71.18C516.179 71.18 527.003 74.4667 534.709 81.04C542.416 87.6133 546.269 97.87 546.269 111.81V164H521.449ZM493.569 165.36C486.429 165.36 480.309 164.17 475.209 161.79C470.109 159.297 466.199 155.953 463.479 151.76C460.759 147.567 459.399 142.863 459.399 137.65C459.399 132.21 460.703 127.45 463.309 123.37C466.029 119.29 470.279 116.117 476.059 113.85C481.839 111.47 489.376 110.28 498.669 110.28H522.979V125.75H501.559C495.326 125.75 491.019 126.77 488.639 128.81C486.373 130.85 485.239 133.4 485.239 136.46C485.239 139.86 486.543 142.58 489.149 144.62C491.869 146.547 495.553 147.51 500.199 147.51C504.619 147.51 508.586 146.49 512.099 144.45C515.613 142.297 518.163 139.18 519.749 135.1L523.829 147.34C521.903 153.233 518.389 157.71 513.289 160.77C508.189 163.83 501.616 165.36 493.569 165.36ZM595.941 165.36C588.121 165.36 580.584 164.453 573.331 162.64C566.191 160.713 560.524 158.333 556.331 155.5L565.171 136.46C569.364 139.067 574.294 141.22 579.961 142.92C585.741 144.507 591.408 145.3 596.961 145.3C603.081 145.3 607.388 144.563 609.881 143.09C612.488 141.617 613.791 139.577 613.791 136.97C613.791 134.817 612.771 133.23 610.731 132.21C608.804 131.077 606.198 130.227 602.911 129.66C599.624 129.093 595.998 128.527 592.031 127.96C588.178 127.393 584.268 126.657 580.301 125.75C576.334 124.73 572.708 123.257 569.421 121.33C566.134 119.403 563.471 116.797 561.431 113.51C559.504 110.223 558.541 105.973 558.541 100.76C558.541 94.98 560.184 89.88 563.471 85.46C566.871 81.04 571.744 77.5833 578.091 75.09C584.438 72.4833 592.031 71.18 600.871 71.18C607.104 71.18 613.451 71.86 619.911 73.22C626.371 74.58 631.754 76.5633 636.061 79.17L627.221 98.04C622.801 95.4333 618.324 93.6767 613.791 92.77C609.371 91.75 605.064 91.24 600.871 91.24C594.978 91.24 590.671 92.0333 587.951 93.62C585.231 95.2067 583.871 97.2467 583.871 99.74C583.871 102.007 584.834 103.707 586.761 104.84C588.801 105.973 591.464 106.88 594.751 107.56C598.038 108.24 601.608 108.863 605.461 109.43C609.428 109.883 613.394 110.62 617.361 111.64C621.328 112.66 624.898 114.133 628.071 116.06C631.358 117.873 634.021 120.423 636.061 123.71C638.101 126.883 639.121 131.077 639.121 136.29C639.121 141.957 637.421 147 634.021 151.42C630.621 155.727 625.691 159.127 619.231 161.62C612.884 164.113 605.121 165.36 595.941 165.36Z" fill="#FFFFFF"></path>
<path d="M94.7848 191C37.2849 162 -31.1256 90.6484 98.7849 28.5C-74.7437 158.923 236.785 262.5 698.285 219C359.785 288 152.285 220 94.7848 191Z" fill="#FFFFFF"></path>
<path d="M114.785 253C-26.9282 193.967 -9.71534 123 21.7853 87C-67.7148 288 673.285 322.5 940.785 182C659.785 341.5 256.498 312.033 114.785 253Z" fill="#FFFFFF"></path>
</svg>